<svg width="353" height="22" viewBox="0 0 353 22" fill="none" xmlns="http://www.w3.org/2000/svg">
<path d="M6.87451 13.6138C7.01367 13.6138 7.13428 13.6694 7.23633 13.7808C7.33838 13.8921 7.39404 14.0127 7.39404 14.1519C7.39404 14.3003 7.33838 14.4209 7.23633 14.5137C7.13428 14.6157 7.01367 14.6621 6.87451 14.6621C6.69824 14.6621 6.56836 14.6064 6.47559 14.4951L6.43848 14.5322C6.5498 14.6343 6.61475 14.7642 6.61475 14.9312C6.61475 15.0796 6.55908 15.2002 6.45703 15.293C6.35498 15.395 6.23438 15.4414 6.09521 15.4414H5.76123C5.80762 15.5156 5.83545 15.5991 5.83545 15.7104C5.83545 15.8589 5.77979 15.9795 5.67773 16.0723C5.57568 16.1743 5.45508 16.2207 5.31592 16.2207H4.98193C5.02832 16.3042 5.05615 16.397 5.05615 16.4897C5.05615 16.6382 5.00049 16.7588 4.89844 16.8608C4.79639 16.9722 4.67578 17.0186 4.53662 17.0186C4.38818 17.0186 4.26758 16.9722 4.16553 16.8608C4.0542 16.7588 4.00781 16.6382 4.00781 16.4897C4.00781 16.3506 4.07275 16.2207 4.20264 16.1094C4.07275 15.998 4.00781 15.8682 4.00781 15.7104C4.00781 15.5713 4.0542 15.4507 4.16553 15.3486C4.26758 15.2466 4.38818 15.1909 4.53662 15.1909H4.86133C4.80566 15.0981 4.78711 15.0054 4.78711 14.9312C4.78711 14.7827 4.85205 14.6436 4.98193 14.5322C4.85205 14.4209 4.78711 14.3003 4.78711 14.1519C4.78711 14.0034 4.85205 13.8643 4.98193 13.7529C4.85205 13.6416 4.78711 13.521 4.78711 13.3726C4.78711 13.2241 4.85205 13.085 4.98193 12.9736C4.85205 12.8623 4.78711 12.7417 4.78711 12.5933C4.78711 12.4355 4.85205 12.3057 4.98193 12.1943C4.85205 12.083 4.78711 11.9624 4.78711 11.814C4.78711 11.6655 4.8335 11.5449 4.93555 11.4429C5.0376 11.3408 5.16748 11.2852 5.31592 11.2852H5.64062C5.58496 11.1924 5.56641 11.1089 5.56641 11.0347C5.56641 10.8862 5.63135 10.7471 5.76123 10.6357C5.63135 10.5337 5.56641 10.4038 5.56641 10.2368C5.56641 10.0977 5.63135 9.96777 5.76123 9.85645C5.63135 9.74512 5.56641 9.61523 5.56641 9.45752C5.56641 9.31836 5.63135 9.18848 5.76123 9.07715C5.63135 8.96582 5.56641 8.83594 5.56641 8.67822C5.56641 8.53906 5.63135 8.40918 5.76123 8.29785C5.63135 8.18652 5.56641 8.05664 5.56641 7.89893C5.56641 7.75977 5.61279 7.63916 5.72412 7.53711C5.82617 7.44434 5.94678 7.38867 6.09521 7.38867H6.41992C6.38281 7.31445 6.36426 7.23096 6.36426 7.11963C6.36426 6.95264 6.41992 6.82275 6.54053 6.7207C6.41992 6.62793 6.36426 6.49805 6.36426 6.34033C6.36426 6.17334 6.41992 6.04346 6.54053 5.94141C6.41992 5.84863 6.36426 5.71875 6.36426 5.56104C6.36426 5.39404 6.41992 5.26416 6.54053 5.16211C6.41992 5.06934 6.36426 4.93945 6.36426 4.78174C6.36426 4.67969 6.38281 4.58691 6.41992 4.5127H3.7666C3.60889 4.5127 3.479 4.46631 3.37695 4.36426C3.2749 4.27148 3.22852 4.15088 3.22852 4.00244C3.22852 3.86328 3.2749 3.74268 3.38623 3.63135C3.48828 3.5293 3.61816 3.47363 3.7666 3.47363H10.771C10.9194 3.47363 11.0493 3.5293 11.1514 3.63135C11.2534 3.74268 11.3091 3.86328 11.3091 4.00244C11.3091 4.15088 11.2534 4.27148 11.1514 4.36426C11.0493 4.46631 10.9194 4.5127 10.771 4.5127H8.1084C8.14551 4.60547 8.17334 4.68896 8.17334 4.78174C8.17334 4.93945 8.1084 5.06934 7.99707 5.16211C8.1084 5.26416 8.17334 5.39404 8.17334 5.56104C8.17334 5.71875 8.1084 5.84863 7.99707 5.94141C8.1084 6.04346 8.17334 6.17334 8.17334 6.34033C8.17334 6.49805 8.1084 6.62793 7.99707 6.7207C8.1084 6.82275 8.17334 6.95264 8.17334 7.11963C8.17334 7.26807 8.11768 7.38867 8.01562 7.48145C7.91357 7.5835 7.79297 7.62988 7.65381 7.62988H7.33838C7.37549 7.7041 7.39404 7.79688 7.39404 7.89893C7.39404 8.06592 7.3291 8.20508 7.21777 8.29785C7.3291 8.3999 7.39404 8.52979 7.39404 8.67822C7.39404 8.84521 7.3291 8.98438 7.21777 9.07715C7.3291 9.1792 7.39404 9.30908 7.39404 9.45752C7.39404 9.62451 7.3291 9.76367 7.21777 9.85645C7.3291 9.9585 7.39404 10.0884 7.39404 10.2368C7.39404 10.4038 7.3291 10.543 7.21777 10.6357C7.3291 10.7378 7.39404 10.8677 7.39404 11.0347C7.39404 11.1831 7.33838 11.3037 7.23633 11.3965C7.13428 11.4985 7.01367 11.5449 6.87451 11.5449H6.55908C6.59619 11.6191 6.61475 11.7119 6.61475 11.814C6.61475 11.9717 6.5498 12.1016 6.43848 12.1943C6.5498 12.2964 6.61475 12.4263 6.61475 12.5933C6.61475 12.751 6.5498 12.8809 6.43848 12.9736C6.5498 13.0757 6.61475 13.2056 6.61475 13.3726C6.61475 13.5303 6.5498 13.6602 6.43848 13.7529C6.44775 13.7715 6.45703 13.79 6.47559 13.8086C6.58691 13.6787 6.7168 13.6138 6.87451 13.6138ZM13.1274 4.5127C12.979 4.5127 12.8584 4.46631 12.7563 4.36426C12.645 4.27148 12.5986 4.15088 12.5986 4.00244C12.5986 3.86328 12.645 3.74268 12.7563 3.63135C12.8584 3.5293 12.979 3.47363 13.1274 3.47363H19.3618C19.5103 3.47363 19.6309 3.5293 19.7329 3.63135C19.835 3.7334 19.8906 3.854 19.8906 4.00244C19.8906 4.15088 19.835 4.27148 19.7422 4.36426C19.6401 4.46631 19.5103 4.5127 19.3618 4.5127H16.6992C16.7363 4.58691 16.7549 4.67969 16.7549 4.78174C16.7549 4.93018 16.6992 5.05078 16.6064 5.14355C16.5044 5.24561 16.3838 5.29199 16.2446 5.29199C16.0962 5.29199 15.9756 5.24561 15.8828 5.14355C15.7808 5.05078 15.7344 4.93018 15.7344 4.78174C15.7344 4.67969 15.7529 4.58691 15.79 4.5127H13.1274ZM27.1733 3.47363C27.3218 3.47363 27.4424 3.5293 27.5444 3.63135C27.6465 3.7334 27.7021 3.854 27.7021 4.00244C27.7021 4.15088 27.6465 4.27148 27.5537 4.36426C27.4517 4.46631 27.3218 4.5127 27.1733 4.5127H23.7314C23.7686 4.58691 23.7871 4.67969 23.7871 4.78174C23.7871 4.93018 23.7314 5.05078 23.6387 5.14355C23.5366 5.24561 23.416 5.29199 23.2769 5.29199C23.1284 5.29199 23.0078 5.24561 22.915 5.14355C22.813 5.05078 22.7666 4.93018 22.7666 4.78174C22.7666 4.67969 22.7852 4.58691 22.8223 4.5127H21.7183C21.5698 4.5127 21.4492 4.46631 21.3472 4.36426C21.2358 4.27148 21.1895 4.15088 21.1895 4.00244C21.1895 3.86328 21.2358 3.74268 21.3472 3.63135C21.4492 3.5293 21.5698 3.47363 21.7183 3.47363H27.1733ZM15.9756 5.56104C15.9756 5.70947 15.9199 5.83008 15.8271 5.92285C15.7251 6.0249 15.6045 6.07129 15.4653 6.07129C15.3169 6.07129 15.1963 6.0249 15.1035 5.92285C15.0015 5.83008 14.9551 5.70947 14.9551 5.56104C14.9551 5.42188 15.0015 5.30127 15.1035 5.18994C15.1963 5.08789 15.3169 5.03223 15.4653 5.03223C15.6045 5.03223 15.7251 5.08789 15.8271 5.18994C15.9199 5.30127 15.9756 5.42188 15.9756 5.56104ZM22.4976 5.03223C22.6367 5.03223 22.7573 5.08789 22.8594 5.18994C22.9521 5.30127 23.0078 5.42188 23.0078 5.56104C23.0078 5.70947 22.9521 5.83008 22.8594 5.92285C22.7573 6.0249 22.6367 6.07129 22.4976 6.07129C22.3491 6.07129 22.2192 6.0249 22.1172 5.92285C22.0059 5.83008 21.9595 5.70947 21.9595 5.56104C21.9595 5.42188 22.0059 5.30127 22.1172 5.18994C22.2285 5.08789 22.3491 5.03223 22.4976 5.03223ZM14.686 5.83008C14.8252 5.83008 14.9458 5.88574 15.0479 5.97852C15.1406 6.08057 15.1963 6.20117 15.1963 6.34033C15.1963 6.48877 15.1406 6.60938 15.0479 6.70215C14.9458 6.8042 14.8252 6.85059 14.686 6.85059C14.5376 6.85059 14.417 6.8042 14.3242 6.70215C14.2222 6.60938 14.1758 6.48877 14.1758 6.34033C14.1758 6.20117 14.2222 6.08057 14.3242 5.97852C14.417 5.88574 14.5376 5.83008 14.686 5.83008ZM21.7183 5.83008C21.8574 5.83008 21.978 5.88574 22.0801 5.97852C22.1729 6.08057 22.2285 6.20117 22.2285 6.34033C22.2285 6.48877 22.1729 6.60938 22.0801 6.70215C21.978 6.8042 21.8574 6.85059 21.7183 6.85059C21.5698 6.85059 21.4492 6.8042 21.3472 6.70215C21.2358 6.60938 21.1895 6.48877 21.1895 6.34033C21.1895 6.20117 21.2358 6.08057 21.3472 5.97852C21.4492 5.88574 21.5698 5.83008 21.7183 5.83008ZM20.939 6.60938C21.0781 6.60938 21.1987 6.66504 21.3008 6.75781C21.3936 6.85986 21.4492 6.98047 21.4492 7.11963C21.4492 7.26807 21.3936 7.38867 21.3008 7.48145C21.1987 7.5835 21.0781 7.62988 20.939 7.62988C20.7905 7.62988 20.6699 7.5835 20.5679 7.48145C20.4565 7.38867 20.4102 7.26807 20.4102 7.11963C20.4102 6.98047 20.4565 6.85986 20.5679 6.75781C20.6699 6.66504 20.7905 6.60938 20.939 6.60938ZM13.9067 13.6138C14.0459 13.6138 14.1665 13.6694 14.2686 13.7715C14.3613 13.8828 14.417 14.0034 14.417 14.1519C14.417 14.3003 14.3613 14.4209 14.2686 14.5137C14.1665 14.6157 14.0459 14.6621 13.9067 14.6621C13.7305 14.6621 13.6006 14.6064 13.5078 14.4951L13.4707 14.5322C13.582 14.625 13.6377 14.7642 13.6377 14.9312C13.6377 15.0796 13.582 15.2002 13.4893 15.293C13.3872 15.395 13.2666 15.4414 13.1274 15.4414H12.7842C12.8306 15.5156 12.8584 15.5991 12.8584 15.7104C12.8584 15.8589 12.8027 15.9795 12.71 16.0723C12.6079 16.1743 12.4873 16.2207 12.3481 16.2207H12.0049C12.0605 16.3135 12.0884 16.4062 12.0884 16.4897C12.0884 16.6382 12.0327 16.7588 11.9307 16.8608C11.8286 16.9722 11.708 17.0186 11.5688 17.0186C11.4204 17.0186 11.2905 16.9722 11.1885 16.8701C11.0864 16.7681 11.04 16.6382 11.04 16.4897C11.04 16.3506 11.0957 16.2207 11.207 16.1094C11.0957 15.998 11.04 15.8682 11.04 15.7104C11.04 15.5713 11.0864 15.4507 11.1885 15.3486C11.2812 15.2466 11.4111 15.1909 11.5688 15.1909H11.8936C11.8379 15.0981 11.8193 15.0054 11.8193 14.9312C11.8193 14.7734 11.875 14.6436 12.0049 14.5322C11.875 14.4302 11.8193 14.3003 11.8193 14.1519C11.8193 13.9941 11.875 13.8643 12.0049 13.7529C11.875 13.6509 11.8193 13.521 11.8193 13.3726C11.8193 13.2148 11.875 13.085 12.0049 12.9736C11.875 12.8716 11.8193 12.7417 11.8193 12.5933C11.8193 12.4355 11.875 12.3057 12.0049 12.1943C11.875 12.0923 11.8193 11.9624 11.8193 11.814C11.8193 11.6655 11.8657 11.5356 11.9678 11.4336C12.0605 11.3408 12.1904 11.2852 12.3481 11.2852H12.6729C12.6172 11.1924 12.5986 11.1089 12.5986 11.0347C12.5986 10.877 12.6543 10.7471 12.7842 10.6357C12.6543 10.5337 12.5986 10.4038 12.5986 10.2368C12.5986 10.0884 12.6543 9.96777 12.7842 9.85645C12.6543 9.75439 12.5986 9.62451 12.5986 9.45752C12.5986 9.30908 12.6543 9.18848 12.7842 9.07715L12.7285 9.02148C12.6172 9.15137 12.4966 9.20703 12.3481 9.20703C12.1997 9.20703 12.0698 9.16064 11.9678 9.05859C11.8657 8.95654 11.8193 8.82666 11.8193 8.67822C11.8193 8.53906 11.8657 8.41846 11.9678 8.31641C12.0605 8.22363 12.1904 8.16797 12.3481 8.16797C12.5059 8.16797 12.6357 8.22363 12.7285 8.33496C12.7378 8.32568 12.7563 8.31641 12.7842 8.29785C12.6543 8.1958 12.5986 8.06592 12.5986 7.89893C12.5986 7.75977 12.645 7.63916 12.7563 7.53711C12.8584 7.44434 12.979 7.38867 13.1274 7.38867H13.4521C13.3965 7.2959 13.3779 7.20312 13.3779 7.11963C13.3779 6.98047 13.4243 6.85986 13.5356 6.75781C13.6377 6.66504 13.7583 6.60938 13.9067 6.60938C14.0459 6.60938 14.1665 6.66504 14.2686 6.75781C14.3613 6.85986 14.417 6.98047 14.417 7.11963C14.417 7.2959 14.3613 7.42578 14.25 7.51855C14.3613 7.61133 14.417 7.74121 14.417 7.89893C14.417 8.0752 14.3613 8.20508 14.25 8.29785C14.3613 8.39062 14.417 8.52051 14.417 8.67822C14.417 8.85449 14.3613 8.98438 14.25 9.07715C14.3613 9.16992 14.417 9.2998 14.417 9.45752C14.417 9.63379 14.3613 9.76367 14.25 9.85645C14.3613 9.94922 14.417 10.0791 14.417 10.2368C14.417 10.4131 14.3613 10.543 14.25 10.6357C14.3613 10.7285 14.417 10.8677 14.417 11.0347C14.417 11.1831 14.3613 11.3037 14.2686 11.3965C14.1665 11.4985 14.0459 11.5449 13.9067 11.5449H13.5635C13.6099 11.6191 13.6377 11.7026 13.6377 11.814C13.6377 11.981 13.582 12.1016 13.4707 12.1943C13.582 12.2871 13.6377 12.4263 13.6377 12.5933C13.6377 12.7603 13.582 12.8809 13.4707 12.9736C13.582 13.0664 13.6377 13.2056 13.6377 13.3726C13.6377 13.5396 13.582 13.6602 13.4707 13.7529C13.48 13.7715 13.4893 13.79 13.5078 13.8086C13.6191 13.6787 13.749 13.6138 13.9067 13.6138ZM20.1597 7.38867C20.2988 7.38867 20.4194 7.44434 20.5215 7.53711C20.6143 7.63916 20.6699 7.75977 20.6699 7.89893C20.6699 8.04736 20.6143 8.16797 20.5215 8.27002C20.4194 8.38135 20.2988 8.42773 20.1597 8.42773C20.0112 8.42773 19.8813 8.38135 19.7793 8.2793C19.6772 8.17725 19.6309 8.04736 19.6309 7.89893C19.6309 7.75977 19.6772 7.63916 19.7793 7.53711C19.8721 7.44434 20.002 7.38867 20.1597 7.38867ZM19.3618 8.16797C19.5103 8.16797 19.6401 8.22363 19.7422 8.31641C19.835 8.41846 19.8906 8.53906 19.8906 8.67822C19.8906 8.82666 19.835 8.95654 19.7329 9.05859C19.6309 9.16064 19.5103 9.20703 19.3618 9.20703C19.2134 9.20703 19.0928 9.16064 19 9.04932C18.8979 8.94727 18.8516 8.82666 18.8516 8.67822C18.8516 8.53906 18.8979 8.41846 19 8.31641C19.0928 8.22363 19.2134 8.16797 19.3618 8.16797ZM11.04 9.45752C11.04 9.31836 11.0864 9.19775 11.1885 9.0957C11.2812 9.00293 11.4111 8.94727 11.5688 8.94727C11.708 8.94727 11.8286 9.00293 11.9307 9.0957C12.0327 9.19775 12.0884 9.31836 12.0884 9.45752C12.0884 9.60596 12.0327 9.72656 11.9307 9.82861C11.8286 9.93994 11.708 9.98633 11.5688 9.98633C11.4204 9.98633 11.2905 9.93994 11.1885 9.83789C11.0864 9.73584 11.04 9.60596 11.04 9.45752ZM18.5825 8.94727C18.731 8.94727 18.8608 9.00293 18.9629 9.0957C19.0557 9.19775 19.1113 9.31836 19.1113 9.45752C19.1113 9.60596 19.0557 9.73584 18.9536 9.83789C18.8516 9.93994 18.731 9.98633 18.5825 9.98633C18.4341 9.98633 18.3135 9.93994 18.2207 9.82861C18.1187 9.72656 18.0723 9.60596 18.0723 9.45752C18.0723 9.31836 18.1187 9.19775 18.2207 9.0957C18.3135 9.00293 18.4341 8.94727 18.5825 8.94727ZM11.3091 10.2368C11.3091 10.3945 11.2534 10.5244 11.1514 10.6172C11.0493 10.7192 10.9194 10.7656 10.771 10.7656C10.6226 10.7656 10.502 10.7192 10.4092 10.6172C10.3071 10.5244 10.2607 10.3945 10.2607 10.2368C10.2607 10.0977 10.3071 9.97705 10.4092 9.875C10.502 9.78223 10.6226 9.72656 10.771 9.72656C10.9194 9.72656 11.0493 9.78223 11.1514 9.875C11.2534 9.97705 11.3091 10.0977 11.3091 10.2368ZM17.8032 9.72656C17.9424 9.72656 18.063 9.78223 18.1743 9.875C18.2764 9.97705 18.332 10.0977 18.332 10.2368C18.332 10.3853 18.2764 10.5151 18.1743 10.6172C18.0723 10.7192 17.9517 10.7656 17.8032 10.7656C17.6548 10.7656 17.5342 10.7192 17.4414 10.6172C17.3394 10.5244 17.293 10.3945 17.293 10.2368C17.293 10.0977 17.3394 9.97705 17.4414 9.875C17.5342 9.78223 17.6548 9.72656 17.8032 9.72656ZM9.9917 10.5059C10.1401 10.5059 10.2607 10.5615 10.3721 10.6636C10.4741 10.7656 10.5298 10.8862 10.5298 11.0347C10.5298 11.1831 10.4741 11.3037 10.3721 11.3965C10.2607 11.4985 10.1401 11.5449 9.9917 11.5449C9.84326 11.5449 9.72266 11.4985 9.62988 11.3965C9.52783 11.3037 9.48145 11.1831 9.48145 11.0347C9.48145 10.8862 9.52783 10.7563 9.62988 10.6543C9.72266 10.5615 9.84326 10.5059 9.9917 10.5059ZM17.0239 10.5059C17.1724 10.5059 17.293 10.5615 17.395 10.6636C17.4971 10.7656 17.5527 10.8862 17.5527 11.0347C17.5527 11.1831 17.4971 11.3037 17.395 11.3965C17.2837 11.4985 17.1631 11.5449 17.0239 11.5449C16.8755 11.5449 16.7549 11.4985 16.6621 11.3965C16.5601 11.3037 16.5137 11.1831 16.5137 11.0347C16.5137 10.8862 16.5601 10.7563 16.6621 10.6543C16.7549 10.5615 16.8755 10.5059 17.0239 10.5059ZM9.2124 11.2852C9.36084 11.2852 9.48145 11.3408 9.59277 11.4429C9.69482 11.5449 9.75049 11.6655 9.75049 11.814C9.75049 11.9624 9.69482 12.083 9.59277 12.1758C9.48145 12.2778 9.36084 12.3242 9.2124 12.3242C9.06396 12.3242 8.94336 12.2778 8.85059 12.1758C8.74854 12.083 8.70215 11.9624 8.70215 11.814C8.70215 11.6655 8.74854 11.5356 8.85059 11.4336C8.94336 11.3408 9.06396 11.2852 9.2124 11.2852ZM16.2446 11.2852C16.3838 11.2852 16.5044 11.3408 16.6064 11.4336C16.6992 11.5356 16.7549 11.6655 16.7549 11.814C16.7549 11.9624 16.6992 12.083 16.6064 12.1758C16.5044 12.2778 16.3838 12.3242 16.2446 12.3242C16.0962 12.3242 15.9756 12.2778 15.8828 12.1758C15.7808 12.083 15.7344 11.9624 15.7344 11.814C15.7344 11.6655 15.7808 11.5356 15.8828 11.4336C15.9756 11.3408 16.0962 11.2852 16.2446 11.2852ZM8.43311 12.0645C8.57227 12.0645 8.69287 12.1201 8.8042 12.2222C8.91553 12.3335 8.97119 12.4541 8.97119 12.5933C8.97119 12.7417 8.91553 12.8623 8.81348 12.9551C8.70215 13.0571 8.58154 13.1035 8.43311 13.1035C8.28467 13.1035 8.16406 13.0571 8.07129 12.9551C7.96924 12.8623 7.92285 12.7417 7.92285 12.5933C7.92285 12.4541 7.96924 12.3335 8.07129 12.2222C8.16406 12.1201 8.28467 12.0645 8.43311 12.0645ZM15.4653 12.0645C15.6045 12.0645 15.7251 12.1201 15.8271 12.2222C15.9199 12.3335 15.9756 12.4541 15.9756 12.5933C15.9756 12.7417 15.9199 12.8623 15.8271 12.9551C15.7251 13.0571 15.6045 13.1035 15.4653 13.1035C15.3169 13.1035 15.1963 13.0571 15.1035 12.9551C15.0015 12.8623 14.9551 12.7417 14.9551 12.5933C14.9551 12.4541 15.0015 12.3335 15.1035 12.2222C15.1963 12.1201 15.3169 12.0645 15.4653 12.0645ZM7.65381 12.8345C7.79297 12.8345 7.91357 12.8901 8.01562 13.0015C8.11768 13.1128 8.17334 13.2334 8.17334 13.3726C8.17334 13.521 8.11768 13.6416 8.01562 13.7344C7.91357 13.8364 7.79297 13.8828 7.65381 13.8828C7.50537 13.8828 7.38477 13.8364 7.29199 13.7344C7.18994 13.6416 7.14355 13.521 7.14355 13.3726C7.14355 13.2241 7.18994 13.1035 7.29199 12.9922C7.38477 12.8901 7.50537 12.8345 7.65381 12.8345ZM14.686 12.8345C14.8252 12.8345 14.9458 12.8901 15.0479 12.9922C15.1406 13.1035 15.1963 13.2241 15.1963 13.3726C15.1963 13.521 15.1406 13.6416 15.0479 13.7344C14.9458 13.8364 14.8252 13.8828 14.686 13.8828C14.5376 13.8828 14.417 13.8364 14.3242 13.7344C14.2222 13.6416 14.1758 13.521 14.1758 13.3726C14.1758 13.2241 14.2222 13.1035 14.3242 12.9922C14.417 12.8901 14.5376 12.8345 14.686 12.8345ZM29.6318 8.40918C29.4834 8.40918 29.3535 8.36279 29.2607 8.26074C29.1587 8.16797 29.1123 8.03809 29.1123 7.88037C29.1123 7.74121 29.1587 7.62061 29.2607 7.51855C29.3628 7.42578 29.4834 7.37012 29.6318 7.37012H31.9604C32.1089 7.37012 32.2388 7.42578 32.3408 7.51855C32.4429 7.62061 32.4985 7.74121 32.4985 7.88037C32.4985 8.03809 32.4429 8.16797 32.3408 8.26074C32.2388 8.36279 32.1089 8.40918 31.9604 8.40918H29.6318ZM29.3628 15.6919C29.3628 15.8403 29.3071 15.9609 29.2144 16.063C29.1123 16.1743 28.9917 16.2207 28.8525 16.2207H28.0732C27.9248 16.2207 27.8042 16.1743 27.7021 16.063C27.6001 15.9609 27.5537 15.8403 27.5537 15.6919C27.5537 15.5991 27.5723 15.5156 27.6094 15.4414H27.2939C27.1455 15.4414 27.0249 15.395 26.9136 15.2837C26.8022 15.1816 26.7559 15.061 26.7559 14.9126C26.7559 14.7734 26.8208 14.6436 26.9507 14.5322C26.8208 14.4209 26.7559 14.291 26.7559 14.1333C26.7559 13.9941 26.8208 13.8643 26.9507 13.7529C26.8208 13.6416 26.7559 13.5117 26.7559 13.354C26.7559 13.2148 26.8208 13.085 26.9507 12.9736C26.8208 12.8438 26.7559 12.7139 26.7559 12.5747C26.7559 12.4263 26.8208 12.2871 26.9507 12.1758C26.8208 12.0645 26.7559 11.9438 26.7559 11.7954C26.7559 11.647 26.8208 11.5078 26.9507 11.3965C26.8208 11.2852 26.7559 11.1646 26.7559 11.0161C26.7559 10.8677 26.8208 10.7285 26.9507 10.6172C26.8208 10.5059 26.7559 10.3853 26.7559 10.2368C26.7559 10.0884 26.8208 9.94922 26.9507 9.83789C26.8208 9.72656 26.7559 9.60596 26.7559 9.45752C26.7559 9.30908 26.8022 9.18848 26.9136 9.08643C27.0156 8.98438 27.1455 8.92871 27.2939 8.92871H27.6094C27.5723 8.85449 27.5537 8.771 27.5537 8.65967C27.5537 8.52051 27.6001 8.3999 27.7021 8.29785C27.8042 8.20508 27.9248 8.14941 28.0732 8.14941H28.8525C28.9917 8.14941 29.1123 8.20508 29.2144 8.29785C29.3071 8.3999 29.3628 8.52051 29.3628 8.65967C29.3628 8.81738 29.3071 8.94727 29.2144 9.04004C29.1123 9.14209 28.9917 9.18848 28.8525 9.18848H28.5278C28.5649 9.2627 28.5835 9.35547 28.5835 9.45752C28.5835 9.61523 28.5186 9.74512 28.4072 9.83789C28.5186 9.93994 28.5835 10.0698 28.5835 10.2368C28.5835 10.3945 28.5186 10.5244 28.4072 10.6172C28.5186 10.7192 28.5835 10.8491 28.5835 11.0161C28.5835 11.1738 28.5186 11.3037 28.4072 11.3965C28.5186 11.4985 28.5835 11.6284 28.5835 11.7954C28.5835 11.9531 28.5186 12.083 28.4072 12.1758C28.5186 12.2778 28.5835 12.4077 28.5835 12.5747C28.5835 12.7231 28.5186 12.8623 28.4072 12.9736C28.5186 13.0757 28.5835 13.2056 28.5835 13.354C28.5835 13.521 28.5186 13.6602 28.4072 13.7529C28.5186 13.855 28.5835 13.9849 28.5835 14.1333C28.5835 14.3003 28.5186 14.4395 28.4072 14.5322C28.5186 14.6343 28.5835 14.7642 28.5835 14.9126C28.5835 15.0146 28.5649 15.0981 28.5278 15.1724H28.8525C28.9917 15.1724 29.1123 15.228 29.2144 15.3301C29.3071 15.4321 29.3628 15.5527 29.3628 15.6919ZM34.8364 9.45752C34.8364 9.61523 34.7715 9.74512 34.6602 9.83789C34.7715 9.93994 34.8364 10.0698 34.8364 10.2368C34.8364 10.3945 34.7715 10.5244 34.6602 10.6172C34.7715 10.7192 34.8364 10.8491 34.8364 11.0161C34.8364 11.1738 34.7715 11.3037 34.6602 11.3965C34.7715 11.4985 34.8364 11.6284 34.8364 11.7954C34.8364 11.9531 34.7715 12.083 34.6602 12.1758C34.7715 12.2778 34.8364 12.4077 34.8364 12.5747C34.8364 12.7231 34.7715 12.8623 34.6602 12.9736C34.7715 13.0757 34.8364 13.2056 34.8364 13.354C34.8364 13.521 34.7715 13.6602 34.6602 13.7529C34.7715 13.855 34.8364 13.9849 34.8364 14.1333C34.8364 14.3003 34.7715 14.4395 34.6602 14.5322C34.7715 14.6343 34.8364 14.7642 34.8364 14.9126C34.8364 15.061 34.7808 15.1816 34.6787 15.2837C34.5767 15.395 34.4561 15.4414 34.3169 15.4414H33.9829C34.0293 15.5156 34.0571 15.5991 34.0571 15.6919C34.0571 15.8403 34.0015 15.9609 33.8994 16.063C33.7974 16.1743 33.6768 16.2207 33.5376 16.2207H32.7583C32.6099 16.2207 32.48 16.1743 32.3779 16.0723C32.2759 15.9702 32.2295 15.8403 32.2295 15.6919C32.2295 15.5527 32.2759 15.4321 32.3779 15.3301C32.4707 15.228 32.6006 15.1724 32.7583 15.1724H33.083C33.0273 15.0796 33.0088 14.9868 33.0088 14.9126C33.0088 14.7734 33.0737 14.6436 33.2036 14.5322C33.0737 14.4209 33.0088 14.291 33.0088 14.1333C33.0088 13.9941 33.0737 13.8643 33.2036 13.7529C33.0737 13.6416 33.0088 13.5117 33.0088 13.354C33.0088 13.2148 33.0737 13.085 33.2036 12.9736C33.0737 12.8438 33.0088 12.7139 33.0088 12.5747C33.0088 12.4263 33.0737 12.2871 33.2036 12.1758C33.0737 12.0645 33.0088 11.9438 33.0088 11.7954C33.0088 11.647 33.0737 11.5078 33.2036 11.3965C33.0737 11.2852 33.0088 11.1646 33.0088 11.0161C33.0088 10.8677 33.0737 10.7285 33.2036 10.6172C33.0737 10.5059 33.0088 10.3853 33.0088 10.2368C33.0088 10.0884 33.0737 9.94922 33.2036 9.83789C33.0737 9.72656 33.0088 9.60596 33.0088 9.45752C33.0088 9.3833 33.0273 9.29053 33.083 9.18848H32.7583C32.6006 9.18848 32.4707 9.14209 32.3779 9.04004C32.2759 8.94727 32.2295 8.81738 32.2295 8.65967C32.2295 8.52051 32.2759 8.3999 32.3779 8.29785C32.4707 8.20508 32.6006 8.14941 32.7583 8.14941H33.5376C33.6768 8.14941 33.7974 8.20508 33.8994 8.29785C34.0015 8.3999 34.0571 8.52051 34.0571 8.65967C34.0571 8.771 34.0293 8.86377 33.9829 8.92871H34.3169C34.4561 8.92871 34.5767 8.98438 34.6787 9.07715C34.7808 9.1792 34.8364 9.30908 34.8364 9.45752ZM31.9604 15.9517C32.1089 15.9517 32.2388 16.0073 32.3408 16.1094C32.4429 16.2114 32.4985 16.332 32.4985 16.4712C32.4985 16.6289 32.4429 16.7588 32.3408 16.8516C32.2388 16.9536 32.1089 17 31.9604 17H29.6318C29.4834 17 29.3535 16.9536 29.2607 16.8516C29.1587 16.7588 29.1123 16.6289 29.1123 16.4712C29.1123 16.332 29.1587 16.2114 29.2607 16.1094C29.3628 16.0073 29.4834 15.9517 29.6318 15.9517H31.9604ZM46.0342 15.9517C46.1733 15.9517 46.2939 16.0073 46.396 16.1094C46.4888 16.2114 46.5444 16.332 46.5444 16.4712C46.5444 16.6289 46.4888 16.7588 46.396 16.8516C46.2939 16.9536 46.1733 17 46.0342 17H38.2227C38.0742 17 37.9443 16.9536 37.8423 16.8516C37.7402 16.7495 37.6938 16.6196 37.6938 16.4712C37.6938 16.332 37.7402 16.2114 37.8516 16.1094C37.9536 16.0073 38.0742 15.9517 38.2227 15.9517H40.8853C40.8481 15.8774 40.8296 15.7939 40.8296 15.6919C40.8296 15.5342 40.8853 15.4043 40.9966 15.3115C40.8853 15.2188 40.8296 15.0889 40.8296 14.9126C40.8296 14.7549 40.8853 14.625 40.9966 14.5322C40.8853 14.4395 40.8296 14.3096 40.8296 14.1333C40.8296 13.9756 40.8853 13.8457 40.9966 13.7529C40.8853 13.6602 40.8296 13.5303 40.8296 13.354C40.8296 13.1963 40.8853 13.0664 40.9966 12.9736C40.8853 12.8623 40.8296 12.7324 40.8296 12.5747C40.8296 12.4077 40.8853 12.2686 40.9966 12.1758C40.8853 12.083 40.8296 11.9624 40.8296 11.7954C40.8296 11.6284 40.8853 11.4893 40.9966 11.3965C40.8853 11.3037 40.8296 11.1831 40.8296 11.0161C40.8296 10.8491 40.8853 10.71 40.9966 10.6172C40.8853 10.5244 40.8296 10.4038 40.8296 10.2368C40.8296 10.0698 40.8853 9.93066 40.9966 9.83789C40.8853 9.74512 40.8296 9.62451 40.8296 9.45752C40.8296 9.29053 40.8853 9.15137 40.9966 9.05859C40.8853 8.96582 40.8296 8.83594 40.8296 8.65967C40.8296 8.56689 40.8481 8.4834 40.8853 8.40918H38.2227C38.0742 8.40918 37.9443 8.36279 37.8423 8.26074C37.7402 8.15869 37.6938 8.02881 37.6938 7.88037C37.6938 7.74121 37.7402 7.62061 37.8516 7.51855C37.9536 7.42578 38.0742 7.37012 38.2227 7.37012H42.1191C42.2583 7.37012 42.3789 7.42578 42.4902 7.51855C42.5923 7.62061 42.6479 7.74121 42.6479 7.88037C42.6479 8.04736 42.583 8.17725 42.4624 8.2793C42.583 8.39062 42.6479 8.51123 42.6479 8.65967C42.6479 8.82666 42.583 8.95654 42.4624 9.05859C42.583 9.16992 42.6479 9.2998 42.6479 9.45752C42.6479 9.53174 42.6201 9.61523 42.5737 9.70801H43.6963C43.8354 9.70801 43.9561 9.76367 44.0581 9.86572C44.1509 9.97705 44.2065 10.0977 44.2065 10.2368C44.2065 10.3853 44.1509 10.5059 44.0581 10.5986C43.9561 10.7007 43.8354 10.7471 43.6963 10.7471H42.5737C42.6201 10.8491 42.6479 10.9419 42.6479 11.0161C42.6479 11.1646 42.583 11.2944 42.4624 11.3965C42.583 11.5078 42.6479 11.6377 42.6479 11.7954C42.6479 11.9438 42.583 12.0737 42.4624 12.1758C42.583 12.2871 42.6479 12.417 42.6479 12.5747C42.6479 12.7231 42.583 12.853 42.4624 12.9736C42.583 13.085 42.6479 13.2056 42.6479 13.354C42.6479 13.521 42.583 13.6509 42.4624 13.7529C42.583 13.8643 42.6479 13.9849 42.6479 14.1333C42.6479 14.3003 42.583 14.4302 42.4624 14.5322C42.583 14.6436 42.6479 14.7642 42.6479 14.9126C42.6479 15.0796 42.583 15.2095 42.4624 15.3115C42.583 15.4229 42.6479 15.5435 42.6479 15.6919C42.6479 15.7661 42.6201 15.8589 42.5737 15.9517H46.0342ZM45.2549 8.40918C45.1064 8.40918 44.9766 8.36279 44.8745 8.26074C44.7725 8.15869 44.7261 8.02881 44.7261 7.88037C44.7261 7.74121 44.7725 7.62061 44.8838 7.51855C44.9858 7.42578 45.1064 7.37012 45.2549 7.37012H46.0342C46.1733 7.37012 46.2939 7.42578 46.396 7.51855C46.4888 7.62061 46.5444 7.74121 46.5444 7.88037C46.5444 8.03809 46.4888 8.16797 46.396 8.26074C46.2939 8.36279 46.1733 8.40918 46.0342 8.40918H45.2549ZM47.5928 8.92871C47.7319 8.92871 47.8525 8.98438 47.9546 9.07715C48.0474 9.1792 48.103 9.30908 48.103 9.45752C48.103 9.60596 48.0474 9.72656 47.9546 9.81934C47.8525 9.92139 47.7319 9.96777 47.5928 9.96777C47.4351 9.96777 47.3052 9.91211 47.1938 9.80078L47.1567 9.83789C47.2681 9.93066 47.3237 10.0698 47.3237 10.2368C47.3237 10.3853 47.2681 10.5059 47.1753 10.5986C47.0732 10.7007 46.9526 10.7471 46.8135 10.7471C46.665 10.7471 46.5444 10.7007 46.4424 10.5986C46.3311 10.5059 46.2847 10.3853 46.2847 10.2368C46.2847 10.0791 46.3403 9.94922 46.4702 9.83789C46.4424 9.82861 46.4238 9.81934 46.4146 9.80078C46.3032 9.91211 46.1733 9.96777 46.0342 9.96777C45.8857 9.96777 45.7651 9.92139 45.6631 9.81934C45.5518 9.72656 45.5054 9.60596 45.5054 9.45752C45.5054 9.30908 45.5518 9.18848 45.6538 9.08643C45.7559 8.98438 45.8857 8.92871 46.0342 8.92871C46.1733 8.92871 46.3032 8.98438 46.4146 9.0957C46.4238 9.08643 46.4424 9.07715 46.4702 9.05859C46.3403 8.95654 46.2847 8.82666 46.2847 8.65967C46.2847 8.52051 46.3311 8.3999 46.4424 8.29785C46.5444 8.20508 46.665 8.14941 46.8135 8.14941C46.9526 8.14941 47.0732 8.20508 47.1753 8.29785C47.2681 8.3999 47.3237 8.52051 47.3237 8.65967C47.3237 8.83594 47.2681 8.96582 47.1567 9.05859L47.1938 9.0957C47.3052 8.98438 47.4351 8.92871 47.5928 8.92871ZM43.9468 9.45752C43.9468 9.30908 44.0024 9.16992 44.1138 9.05859C44.0024 8.94727 43.9468 8.81738 43.9468 8.65967C43.9468 8.52051 43.9932 8.3999 44.0952 8.29785C44.188 8.20508 44.3179 8.14941 44.4756 8.14941C44.6147 8.14941 44.7354 8.20508 44.8374 8.29785C44.9302 8.3999 44.9858 8.52051 44.9858 8.65967C44.9858 8.81738 44.9302 8.94727 44.8188 9.05859C44.9302 9.16992 44.9858 9.30908 44.9858 9.45752C44.9858 9.60596 44.9302 9.72656 44.8374 9.81934C44.7354 9.92139 44.6147 9.96777 44.4756 9.96777C44.3179 9.96777 44.188 9.92139 44.0952 9.81934C43.9932 9.72656 43.9468 9.60596 43.9468 9.45752ZM55.998 15.9517C56.1372 15.9517 56.2578 16.0073 56.3599 16.1094C56.4526 16.2114 56.5083 16.332 56.5083 16.4712C56.5083 16.6289 56.4526 16.7588 56.3599 16.8516C56.2578 16.9536 56.1372 17 55.998 17H50.5244C50.376 17 50.2554 16.9536 50.1626 16.8516C50.0605 16.7588 50.0142 16.6289 50.0142 16.4712C50.0142 16.332 50.0605 16.2114 50.1626 16.1094C50.2554 16.0073 50.376 15.9517 50.5244 15.9517H53.2056C53.1499 15.8589 53.1313 15.7661 53.1313 15.6919C53.1313 15.5435 53.187 15.4229 53.3169 15.3115C53.187 15.2095 53.1313 15.0796 53.1313 14.9126C53.1313 14.7642 53.187 14.6436 53.3169 14.5322C53.187 14.4302 53.1313 14.3003 53.1313 14.1333C53.1313 13.9849 53.187 13.8643 53.3169 13.7529C53.187 13.6509 53.1313 13.521 53.1313 13.354C53.1313 13.2056 53.187 13.085 53.3169 12.9736C53.187 12.853 53.1313 12.7231 53.1313 12.5747C53.1313 12.417 53.187 12.2871 53.3169 12.1758C53.187 12.0737 53.1313 11.9438 53.1313 11.7954C53.1313 11.6377 53.187 11.5078 53.3169 11.3965C53.187 11.2944 53.1313 11.1646 53.1313 11.0161C53.1313 10.8584 53.187 10.7285 53.3169 10.6172C53.187 10.5151 53.1313 10.3853 53.1313 10.2368C53.1313 10.0791 53.187 9.94922 53.3169 9.83789C53.187 9.73584 53.1313 9.60596 53.1313 9.45752C53.1313 9.2998 53.187 9.16992 53.3169 9.05859C53.187 8.95654 53.1313 8.82666 53.1313 8.65967C53.1313 8.51123 53.187 8.39062 53.3169 8.2793C53.187 8.17725 53.1313 8.04736 53.1313 7.88037C53.1313 7.73193 53.187 7.61133 53.3169 7.5C53.187 7.39795 53.1313 7.26807 53.1313 7.10107C53.1313 6.95264 53.187 6.83203 53.3169 6.7207C53.187 6.61865 53.1313 6.48877 53.1313 6.32178C53.1313 6.17334 53.187 6.05273 53.3169 5.94141C53.187 5.83936 53.1313 5.70947 53.1313 5.54248C53.1313 5.39404 53.187 5.27344 53.3169 5.16211C53.187 5.06006 53.1313 4.93018 53.1313 4.76318C53.1313 4.60547 53.187 4.47559 53.3169 4.36426C53.187 4.26221 53.1313 4.13232 53.1313 3.98389C53.1313 3.90967 53.1499 3.81689 53.2056 3.71484H50.5244C50.376 3.71484 50.2554 3.66846 50.1626 3.56641C50.0605 3.47363 50.0142 3.35303 50.0142 3.20459C50.0142 3.06543 50.0605 2.94482 50.1626 2.8335C50.2554 2.73145 50.376 2.67578 50.5244 2.67578H54.4395C54.5786 2.67578 54.6992 2.73145 54.8013 2.8335C54.894 2.94482 54.9497 3.06543 54.9497 3.20459C54.9497 3.37158 54.894 3.49219 54.7827 3.58496C54.894 3.67773 54.9497 3.81689 54.9497 3.98389C54.9497 4.15088 54.894 4.27148 54.7827 4.36426C54.894 4.45703 54.9497 4.59619 54.9497 4.76318C54.9497 4.93945 54.894 5.06934 54.7827 5.16211C54.894 5.25488 54.9497 5.38477 54.9497 5.54248C54.9497 5.71875 54.894 5.84863 54.7827 5.94141C54.894 6.03418 54.9497 6.16406 54.9497 6.32178C54.9497 6.49805 54.894 6.62793 54.7827 6.7207C54.894 6.81348 54.9497 6.94336 54.9497 7.10107C54.9497 7.27734 54.894 7.40723 54.7827 7.5C54.894 7.59277 54.9497 7.72266 54.9497 7.88037C54.9497 8.05664 54.894 8.18652 54.7827 8.2793C54.894 8.37207 54.9497 8.50195 54.9497 8.65967C54.9497 8.83594 54.894 8.96582 54.7827 9.05859C54.894 9.15137 54.9497 9.29053 54.9497 9.45752C54.9497 9.62451 54.894 9.74512 54.7827 9.83789C54.894 9.93066 54.9497 10.0698 54.9497 10.2368C54.9497 10.4038 54.894 10.5244 54.7827 10.6172C54.894 10.71 54.9497 10.8491 54.9497 11.0161C54.9497 11.1831 54.894 11.3037 54.7827 11.3965C54.894 11.4893 54.9497 11.6284 54.9497 11.7954C54.9497 11.9624 54.894 12.083 54.7827 12.1758C54.894 12.2686 54.9497 12.4077 54.9497 12.5747C54.9497 12.7324 54.894 12.8623 54.7827 12.9736C54.894 13.0664 54.9497 13.1963 54.9497 13.354C54.9497 13.5303 54.894 13.6602 54.7827 13.7529L54.8198 13.79C54.9126 13.6787 55.0518 13.6138 55.2188 13.6138C55.3579 13.6138 55.4785 13.6694 55.5806 13.7715C55.6733 13.8735 55.729 13.9941 55.729 14.1333C55.729 14.2817 55.6733 14.4023 55.5806 14.5044C55.4785 14.6157 55.3579 14.6621 55.2188 14.6621C55.0518 14.6621 54.9219 14.6064 54.8198 14.4766C54.8013 14.5044 54.792 14.5229 54.7827 14.5322C54.894 14.625 54.9497 14.7549 54.9497 14.9126C54.9497 15.0889 54.894 15.2188 54.7827 15.3115C54.894 15.4043 54.9497 15.5342 54.9497 15.6919C54.9497 15.8032 54.9219 15.8867 54.8755 15.9517H55.998ZM56.7773 8.40918C56.6289 8.40918 56.5083 8.36279 56.4155 8.26074C56.3135 8.16797 56.2671 8.03809 56.2671 7.88037C56.2671 7.74121 56.3135 7.62061 56.4155 7.51855C56.5083 7.42578 56.6289 7.37012 56.7773 7.37012H62.251C62.3901 7.37012 62.5107 7.42578 62.6128 7.51855C62.7056 7.62061 62.7612 7.74121 62.7612 7.88037C62.7612 8.03809 62.7056 8.16797 62.6128 8.26074C62.5107 8.36279 62.3901 8.40918 62.251 8.40918H59.5698C59.6162 8.51123 59.644 8.59473 59.644 8.65967C59.644 8.82666 59.5791 8.95654 59.4585 9.05859C59.5791 9.16992 59.644 9.2998 59.644 9.45752C59.644 9.60596 59.5884 9.72656 59.4863 9.81934C59.375 9.92139 59.2544 9.96777 59.1152 9.96777C58.9668 9.96777 58.8462 9.92139 58.7534 9.81934C58.6514 9.72656 58.605 9.60596 58.605 9.45752C58.605 9.30908 58.6606 9.16992 58.772 9.05859C58.6606 8.94727 58.605 8.81738 58.605 8.65967C58.605 8.56689 58.6235 8.4834 58.6792 8.40918H56.7773ZM58.3359 9.70801C58.4751 9.70801 58.5957 9.76367 58.707 9.86572C58.8091 9.97705 58.8647 10.0977 58.8647 10.2368C58.8647 10.3853 58.8091 10.5059 58.707 10.5986C58.5957 10.7007 58.4751 10.7471 58.3359 10.7471C58.1875 10.7471 58.0669 10.7007 57.9741 10.5986C57.8721 10.5059 57.8257 10.3853 57.8257 10.2368C57.8257 10.0977 57.8721 9.97705 57.9741 9.86572C58.0669 9.76367 58.1875 9.70801 58.3359 9.70801ZM58.0854 11.0161C58.0854 11.1646 58.0298 11.2852 57.9277 11.3779C57.8164 11.48 57.6958 11.5264 57.5566 11.5264C57.4082 11.5264 57.2876 11.48 57.1948 11.3779C57.0928 11.2852 57.0464 11.1646 57.0464 11.0161C57.0464 10.877 57.0928 10.7563 57.1948 10.645C57.2876 10.543 57.4082 10.4873 57.5566 10.4873C57.6958 10.4873 57.8164 10.543 57.9277 10.645C58.0298 10.7563 58.0854 10.877 58.0854 11.0161ZM63.0303 15.9517C63.1694 15.9517 63.29 16.0073 63.3921 16.1094C63.4849 16.2114 63.5405 16.332 63.5405 16.4712C63.5405 16.6289 63.4849 16.7588 63.3921 16.8516C63.29 16.9536 63.1694 17 63.0303 17H58.3359C58.1875 17 58.0669 16.9536 57.9741 16.8516C57.8721 16.7588 57.8257 16.6289 57.8257 16.4712C57.8257 16.332 57.8721 16.2114 57.9741 16.1094C58.0669 16.0073 58.1875 15.9517 58.3359 15.9517H59.4585C59.4028 15.8867 59.3843 15.8032 59.3843 15.6919C59.3843 15.5527 59.4399 15.4229 59.5513 15.3115C59.4399 15.2002 59.3843 15.0703 59.3843 14.9126C59.3843 14.8198 59.4028 14.7363 59.4585 14.6621H59.1152C58.9668 14.6621 58.8462 14.6157 58.7534 14.5044C58.6514 14.4023 58.605 14.2817 58.605 14.1333C58.605 13.9941 58.6606 13.8643 58.772 13.7529C58.6606 13.6416 58.605 13.5117 58.605 13.354C58.605 13.2427 58.6235 13.1592 58.6792 13.085H58.3359C58.1875 13.085 58.0669 13.0386 57.9741 12.9365C57.8721 12.8438 57.8257 12.7231 57.8257 12.5747C57.8257 12.4077 57.8813 12.2686 57.9927 12.1758C57.8813 12.083 57.8257 11.9624 57.8257 11.7954C57.8257 11.6562 57.8721 11.5356 57.9741 11.4243C58.0669 11.3223 58.1875 11.2666 58.3359 11.2666H59.1152C59.2544 11.2666 59.375 11.3223 59.4863 11.4243C59.5884 11.5356 59.644 11.6562 59.644 11.7954C59.644 11.9438 59.5791 12.0737 59.4585 12.1758C59.5791 12.2871 59.644 12.417 59.644 12.5747C59.644 12.6489 59.6162 12.7417 59.5698 12.8345H59.8945C60.043 12.8345 60.1636 12.8901 60.2656 12.9922C60.3677 13.0942 60.4233 13.2148 60.4233 13.354C60.4233 13.5117 60.3677 13.6416 60.2563 13.7529C60.3677 13.8643 60.4233 13.9941 60.4233 14.1333C60.4233 14.2075 60.3955 14.3003 60.3491 14.3931H60.6738C60.8223 14.3931 60.9429 14.4487 61.0449 14.5508C61.147 14.6528 61.2026 14.7734 61.2026 14.9126C61.2026 15.0703 61.147 15.2002 61.0356 15.3115C61.147 15.4229 61.2026 15.5527 61.2026 15.6919C61.2026 15.8032 61.1748 15.8867 61.1284 15.9517H63.0303ZM56.7773 11.2666C56.9165 11.2666 57.0371 11.3223 57.1392 11.4243C57.2319 11.5356 57.2876 11.6562 57.2876 11.7954C57.2876 11.9438 57.2319 12.0645 57.1392 12.1572C57.0371 12.2593 56.9165 12.3057 56.7773 12.3057C56.6289 12.3057 56.5083 12.2593 56.4155 12.1572C56.3135 12.0645 56.2671 11.9438 56.2671 11.7954C56.2671 11.6562 56.3135 11.5356 56.4155 11.4243C56.5083 11.3223 56.6289 11.2666 56.7773 11.2666ZM56.5083 12.5747C56.5083 12.7324 56.4526 12.8623 56.3413 12.9736C56.4526 13.0664 56.5083 13.1963 56.5083 13.354C56.5083 13.5024 56.4526 13.623 56.3599 13.7158C56.2578 13.8179 56.1372 13.8643 55.998 13.8643C55.8496 13.8643 55.729 13.8179 55.6362 13.7158C55.5342 13.623 55.4878 13.5024 55.4878 13.354C55.4878 13.1963 55.5435 13.0664 55.6548 12.9736C55.5435 12.8623 55.4878 12.7324 55.4878 12.5747C55.4878 12.4355 55.5342 12.3149 55.6362 12.2129C55.729 12.1201 55.8496 12.0645 55.998 12.0645C56.1372 12.0645 56.2578 12.1201 56.3599 12.2129C56.4526 12.3149 56.5083 12.4355 56.5083 12.5747ZM74.2466 7.88037C74.2466 8.04736 74.1816 8.17725 74.061 8.2793C74.1816 8.39062 74.2466 8.51123 74.2466 8.65967C74.2466 8.82666 74.1816 8.95654 74.061 9.05859C74.1816 9.16992 74.2466 9.2998 74.2466 9.45752C74.2466 9.60596 74.1816 9.73584 74.061 9.83789C74.1816 9.94922 74.2466 10.0791 74.2466 10.2368C74.2466 10.3853 74.1816 10.5151 74.061 10.6172C74.1816 10.7285 74.2466 10.8584 74.2466 11.0161C74.2466 11.1646 74.1909 11.2852 74.0889 11.3779C73.9775 11.48 73.8569 11.5264 73.7178 11.5264C73.5693 11.5264 73.4487 11.48 73.356 11.3779C73.2539 11.2852 73.2075 11.1646 73.2075 11.0161C73.2075 10.8491 73.2632 10.71 73.3745 10.6172C73.2632 10.5244 73.2075 10.4038 73.2075 10.2368C73.2075 10.0698 73.2632 9.93066 73.3745 9.83789C73.2632 9.74512 73.2075 9.62451 73.2075 9.45752C73.2075 9.29053 73.2632 9.15137 73.3745 9.05859L73.3374 9.02148C73.2261 9.13281 73.0869 9.18848 72.9385 9.18848C72.79 9.18848 72.6694 9.14209 72.5767 9.04004C72.4746 8.94727 72.4282 8.81738 72.4282 8.65967C72.4282 8.52051 72.4746 8.3999 72.5767 8.29785C72.6694 8.20508 72.79 8.14941 72.9385 8.14941C73.0869 8.14941 73.2261 8.20508 73.3374 8.31641L73.3745 8.2793C73.2632 8.18652 73.2075 8.05664 73.2075 7.88037C73.2075 7.72266 73.2632 7.59277 73.3745 7.5C73.2632 7.40723 73.2075 7.27734 73.2075 7.10107C73.2075 6.96191 73.2539 6.84131 73.356 6.73926C73.4487 6.64648 73.5693 6.59082 73.7178 6.59082C73.8569 6.59082 73.9775 6.64648 74.0889 6.73926C74.1909 6.84131 74.2466 6.96191 74.2466 7.10107C74.2466 7.26807 74.1816 7.39795 74.061 7.5C74.1816 7.61133 74.2466 7.73193 74.2466 7.88037ZM69.042 8.40918C68.8843 8.40918 68.7544 8.36279 68.6616 8.26074C68.5596 8.16797 68.5132 8.03809 68.5132 7.88037C68.5132 7.74121 68.5596 7.62061 68.6616 7.51855C68.7544 7.42578 68.8843 7.37012 69.042 7.37012H72.1592C72.2983 7.37012 72.4189 7.42578 72.521 7.51855C72.6138 7.62061 72.6694 7.74121 72.6694 7.88037C72.6694 8.03809 72.6138 8.16797 72.521 8.26074C72.4189 8.36279 72.2983 8.40918 72.1592 8.40918H69.042ZM68.2441 9.18848C68.0957 9.18848 67.9751 9.14209 67.8823 9.04004C67.7803 8.94727 67.7339 8.81738 67.7339 8.65967C67.7339 8.52051 67.7803 8.3999 67.8823 8.29785C67.9751 8.20508 68.0957 8.14941 68.2441 8.14941C68.3926 8.14941 68.5225 8.20508 68.6245 8.29785C68.7173 8.3999 68.7729 8.52051 68.7729 8.65967C68.7729 8.81738 68.7173 8.94727 68.6245 9.04004C68.5225 9.14209 68.3926 9.18848 68.2441 9.18848ZM73.7178 12.8345C73.8569 12.8345 73.9775 12.8901 74.0889 12.9922C74.1909 13.0942 74.2466 13.2148 74.2466 13.354C74.2466 13.521 74.1816 13.6509 74.061 13.7529C74.1816 13.8643 74.2466 13.9849 74.2466 14.1333C74.2466 14.3003 74.1816 14.4302 74.061 14.5322C74.1816 14.6436 74.2466 14.7642 74.2466 14.9126C74.2466 15.061 74.1909 15.1816 74.0889 15.2837C73.9775 15.395 73.8569 15.4414 73.7178 15.4414C73.5693 15.4414 73.4487 15.395 73.356 15.2837C73.2539 15.1816 73.2075 15.061 73.2075 14.9126C73.2075 14.8198 73.2261 14.7363 73.2632 14.6621H72.9385C72.79 14.6621 72.6694 14.6157 72.5767 14.5044C72.4746 14.4023 72.4282 14.2817 72.4282 14.1333C72.4282 13.9756 72.4839 13.8457 72.5952 13.7529C72.4839 13.6602 72.4282 13.5303 72.4282 13.354C72.4282 13.252 72.4468 13.1592 72.4839 13.085H69.8213C69.6729 13.085 69.5522 13.0386 69.4502 12.9365C69.3389 12.8438 69.2925 12.7231 69.2925 12.5747C69.2925 12.5005 69.311 12.4077 69.3667 12.3057H68.2441C68.0957 12.3057 67.9751 12.2593 67.8823 12.1572C67.7803 12.0645 67.7339 11.9438 67.7339 11.7954C67.7339 11.6841 67.7524 11.6006 67.8081 11.5264H67.4648C67.3164 11.5264 67.1958 11.48 67.103 11.3779C67.001 11.2852 66.9546 11.1646 66.9546 11.0161C66.9546 10.8677 67.0103 10.7285 67.1216 10.6172C67.0103 10.5059 66.9546 10.3853 66.9546 10.2368C66.9546 10.0884 67.0103 9.94922 67.1216 9.83789C67.0103 9.72656 66.9546 9.60596 66.9546 9.45752C66.9546 9.30908 67.001 9.1792 67.103 9.07715C67.1958 8.98438 67.3164 8.92871 67.4648 8.92871C67.6133 8.92871 67.7339 8.98438 67.8359 9.08643C67.938 9.18848 67.9937 9.30908 67.9937 9.45752C67.9937 9.53174 67.9658 9.61523 67.9194 9.70801H68.2441C68.3926 9.70801 68.5132 9.76367 68.6152 9.86572C68.7173 9.96777 68.7729 10.0884 68.7729 10.2368C68.7729 10.3853 68.7173 10.5059 68.606 10.6172C68.7173 10.7285 68.7729 10.8677 68.7729 11.0161C68.7729 11.1182 68.7451 11.2017 68.6987 11.2666H72.1592C72.2983 11.2666 72.4189 11.3223 72.521 11.4243C72.6138 11.5356 72.6694 11.6562 72.6694 11.7954C72.6694 11.9067 72.6509 11.9902 72.6138 12.0645H72.9385C73.0776 12.0645 73.1982 12.1201 73.3003 12.2129C73.3931 12.3149 73.4487 12.4355 73.4487 12.5747C73.4487 12.6768 73.4302 12.7603 73.3931 12.8345H73.7178ZM67.8638 16.0352L67.8081 16.0908C67.9287 16.2021 67.9937 16.3228 67.9937 16.4712C67.9937 16.6382 67.9287 16.7681 67.8081 16.8701C67.9287 16.9814 67.9937 17.1113 67.9937 17.269C67.9937 17.4175 67.938 17.5381 67.8359 17.6309C67.7246 17.7329 67.604 17.7793 67.4648 17.7793C67.3164 17.7793 67.1958 17.7329 67.103 17.6309C67.001 17.5381 66.9546 17.4175 66.9546 17.269C66.9546 17.1206 67.0103 16.9814 67.1216 16.8701C67.0103 16.7588 66.9546 16.6289 66.9546 16.4712C66.9546 16.332 67.0103 16.2021 67.1216 16.0908C67.0103 15.9795 66.9546 15.8496 66.9546 15.6919C66.9546 15.5527 67.0103 15.4229 67.1216 15.3115C67.0103 15.2002 66.9546 15.0703 66.9546 14.9126C66.9546 14.7734 67.0103 14.6436 67.1216 14.5322C67.0103 14.4209 66.9546 14.291 66.9546 14.1333C66.9546 13.9941 67.0103 13.8643 67.1216 13.7529C67.0103 13.6416 66.9546 13.5117 66.9546 13.354C66.9546 13.2148 67.001 13.0942 67.103 12.9922C67.1958 12.8901 67.3164 12.8345 67.4648 12.8345C67.604 12.8345 67.7246 12.8901 67.8359 12.9922C67.938 13.0942 67.9937 13.2148 67.9937 13.354C67.9937 13.521 67.9287 13.6509 67.8081 13.7529C67.9287 13.8643 67.9937 13.9849 67.9937 14.1333C67.9937 14.3003 67.9287 14.4302 67.8081 14.5322C67.9287 14.6436 67.9937 14.7642 67.9937 14.9126C67.9937 15.0796 67.9287 15.2095 67.8081 15.3115C67.8267 15.3301 67.8452 15.3394 67.8638 15.3486C67.9751 15.2373 68.105 15.1724 68.2441 15.1724C68.3926 15.1724 68.5132 15.228 68.6152 15.3301C68.7173 15.4321 68.7729 15.5527 68.7729 15.6919C68.7729 15.8403 68.7173 15.9702 68.6152 16.0723C68.5132 16.1743 68.3926 16.2207 68.2441 16.2207C68.0957 16.2207 67.9658 16.165 67.8638 16.0352ZM72.9385 15.1724C73.0776 15.1724 73.1982 15.228 73.3003 15.3301C73.3931 15.4321 73.4487 15.5527 73.4487 15.6919C73.4487 15.8403 73.3931 15.9609 73.3003 16.063C73.1982 16.1743 73.0776 16.2207 72.9385 16.2207C72.79 16.2207 72.6694 16.1743 72.5767 16.063C72.4746 15.9609 72.4282 15.8403 72.4282 15.6919C72.4282 15.5527 72.4746 15.4321 72.5767 15.3301C72.6694 15.228 72.79 15.1724 72.9385 15.1724ZM72.1592 15.9517C72.2983 15.9517 72.4189 16.0073 72.521 16.1094C72.6138 16.2114 72.6694 16.332 72.6694 16.4712C72.6694 16.6289 72.6138 16.7588 72.521 16.8516C72.4189 16.9536 72.2983 17 72.1592 17H69.042C68.8843 17 68.7544 16.9536 68.6616 16.8516C68.5596 16.7588 68.5132 16.6289 68.5132 16.4712C68.5132 16.332 68.5596 16.2114 68.6616 16.1094C68.7637 16.0073 68.8936 15.9517 69.042 15.9517H72.1592ZM83.459 9.70801C83.6074 9.70801 83.728 9.76367 83.8301 9.86572C83.9321 9.96777 83.9878 10.0884 83.9878 10.2368C83.9878 10.3853 83.9321 10.5059 83.8394 10.5986C83.7373 10.7007 83.6074 10.7471 83.459 10.7471H82.355C82.4014 10.8491 82.4292 10.9419 82.4292 11.0161C82.4292 11.1646 82.3643 11.2944 82.2437 11.3965C82.3643 11.5078 82.4292 11.6377 82.4292 11.7954C82.4292 11.9438 82.3643 12.0737 82.2437 12.1758C82.3643 12.2871 82.4292 12.417 82.4292 12.5747C82.4292 12.7231 82.3643 12.853 82.2437 12.9736C82.3643 13.085 82.4292 13.2056 82.4292 13.354C82.4292 13.521 82.3643 13.6509 82.2437 13.7529C82.3643 13.8643 82.4292 13.9849 82.4292 14.1333C82.4292 14.3003 82.3643 14.4302 82.2437 14.5322C82.3643 14.6436 82.4292 14.7642 82.4292 14.9126C82.4292 15.0796 82.3643 15.2095 82.2437 15.3115C82.3643 15.4229 82.4292 15.5435 82.4292 15.6919C82.4292 15.7661 82.4014 15.8589 82.355 15.9517H83.459C83.6074 15.9517 83.728 16.0073 83.8301 16.1094C83.9321 16.2114 83.9878 16.332 83.9878 16.4712C83.9878 16.6289 83.9321 16.7588 83.8394 16.8516C83.7373 16.9536 83.6074 17 83.459 17H78.0039C77.8555 17 77.7256 16.9536 77.6235 16.8516C77.5215 16.7495 77.4751 16.6196 77.4751 16.4712C77.4751 16.332 77.5215 16.2114 77.6328 16.1094C77.7349 16.0073 77.8555 15.9517 78.0039 15.9517H80.6665C80.6294 15.8774 80.6108 15.7939 80.6108 15.6919C80.6108 15.5342 80.6665 15.4043 80.7778 15.3115C80.6665 15.2188 80.6108 15.0889 80.6108 14.9126C80.6108 14.7549 80.6665 14.625 80.7778 14.5322C80.6665 14.4395 80.6108 14.3096 80.6108 14.1333C80.6108 13.9756 80.6665 13.8457 80.7778 13.7529C80.6665 13.6602 80.6108 13.5303 80.6108 13.354C80.6108 13.1963 80.6665 13.0664 80.7778 12.9736C80.6665 12.8623 80.6108 12.7324 80.6108 12.5747C80.6108 12.4077 80.6665 12.2686 80.7778 12.1758C80.6665 12.083 80.6108 11.9624 80.6108 11.7954C80.6108 11.6284 80.6665 11.4893 80.7778 11.3965C80.6665 11.3037 80.6108 11.1831 80.6108 11.0161C80.6108 10.8491 80.6665 10.71 80.7778 10.6172C80.6665 10.5244 80.6108 10.4038 80.6108 10.2368C80.6108 10.0698 80.6665 9.93066 80.7778 9.83789C80.6665 9.74512 80.6108 9.62451 80.6108 9.45752C80.6108 9.29053 80.6665 9.15137 80.7778 9.05859C80.6665 8.96582 80.6108 8.83594 80.6108 8.65967C80.6108 8.50195 80.6665 8.37207 80.7778 8.2793C80.6665 8.18652 80.6108 8.05664 80.6108 7.88037C80.6108 7.72266 80.6665 7.59277 80.7778 7.5C80.6665 7.40723 80.6108 7.27734 80.6108 7.10107C80.6108 6.94336 80.6665 6.81348 80.7778 6.7207C80.6665 6.62793 80.6108 6.49805 80.6108 6.32178C80.6108 6.16406 80.6665 6.03418 80.7778 5.94141C80.6665 5.84863 80.6108 5.71875 80.6108 5.54248C80.6108 5.38477 80.6665 5.25488 80.7778 5.16211C80.6665 5.06934 80.6108 4.93945 80.6108 4.76318C80.6108 4.59619 80.6665 4.45703 80.7778 4.36426C80.6665 4.27148 80.6108 4.15088 80.6108 3.98389C80.6108 3.88184 80.6294 3.78906 80.6665 3.71484H78.0039C77.8555 3.71484 77.7349 3.66846 77.6328 3.56641C77.5215 3.47363 77.4751 3.35303 77.4751 3.20459C77.4751 3.06543 77.5215 2.94482 77.6328 2.8335C77.7349 2.73145 77.8555 2.67578 78.0039 2.67578H81.9004C82.0396 2.67578 82.1602 2.73145 82.2715 2.8335C82.3735 2.94482 82.4292 3.06543 82.4292 3.20459C82.4292 3.35303 82.3643 3.48291 82.2437 3.58496C82.3643 3.69629 82.4292 3.82617 82.4292 3.98389C82.4292 4.13232 82.3643 4.26221 82.2437 4.36426C82.3643 4.47559 82.4292 4.60547 82.4292 4.76318C82.4292 4.93018 82.3643 5.06006 82.2437 5.16211C82.3643 5.27344 82.4292 5.39404 82.4292 5.54248C82.4292 5.70947 82.3643 5.83936 82.2437 5.94141C82.3643 6.05273 82.4292 6.17334 82.4292 6.32178C82.4292 6.48877 82.3643 6.61865 82.2437 6.7207C82.3643 6.83203 82.4292 6.95264 82.4292 7.10107C82.4292 7.26807 82.3643 7.39795 82.2437 7.5C82.3643 7.61133 82.4292 7.73193 82.4292 7.88037C82.4292 8.04736 82.3643 8.17725 82.2437 8.2793C82.3643 8.39062 82.4292 8.51123 82.4292 8.65967C82.4292 8.82666 82.3643 8.95654 82.2437 9.05859C82.3643 9.16992 82.4292 9.2998 82.4292 9.45752C82.4292 9.53174 82.4014 9.61523 82.355 9.70801H83.459ZM90.4912 15.9517C90.6304 15.9517 90.751 16.0073 90.8623 16.1094C90.9644 16.2114 91.02 16.332 91.02 16.4712C91.02 16.6196 90.9644 16.7495 90.8623 16.8516C90.7603 16.9536 90.6396 17 90.4912 17H85.0361C84.8784 17 84.7485 16.9536 84.6558 16.8516C84.5537 16.7588 84.5073 16.6289 84.5073 16.4712C84.5073 16.332 84.5537 16.2114 84.6558 16.1094C84.7578 16.0073 84.8877 15.9517 85.0361 15.9517H86.1401C86.0845 15.8589 86.0659 15.7661 86.0659 15.6919C86.0659 15.5435 86.1216 15.4229 86.2515 15.3115C86.1216 15.2095 86.0659 15.0796 86.0659 14.9126C86.0659 14.7642 86.1216 14.6436 86.2515 14.5322C86.1216 14.4302 86.0659 14.3003 86.0659 14.1333C86.0659 13.9849 86.1216 13.8643 86.2515 13.7529C86.1216 13.6509 86.0659 13.521 86.0659 13.354C86.0659 13.2056 86.1216 13.085 86.2515 12.9736C86.1216 12.853 86.0659 12.7231 86.0659 12.5747C86.0659 12.417 86.1216 12.2871 86.2515 12.1758C86.1216 12.0737 86.0659 11.9438 86.0659 11.7954C86.0659 11.6377 86.1216 11.5078 86.2515 11.3965C86.1216 11.2944 86.0659 11.1646 86.0659 11.0161C86.0659 10.8584 86.1216 10.7285 86.2515 10.6172C86.1216 10.5151 86.0659 10.3853 86.0659 10.2368C86.0659 10.0791 86.1216 9.94922 86.2515 9.83789C86.1216 9.73584 86.0659 9.60596 86.0659 9.45752C86.0659 9.2998 86.1216 9.16992 86.2515 9.05859C86.1216 8.95654 86.0659 8.82666 86.0659 8.65967C86.0659 8.59473 86.0845 8.51123 86.1401 8.40918H85.0361C84.8784 8.40918 84.7485 8.36279 84.6558 8.26074C84.5537 8.16797 84.5073 8.03809 84.5073 7.88037C84.5073 7.74121 84.5537 7.62061 84.6558 7.51855C84.7485 7.42578 84.8784 7.37012 85.0361 7.37012H86.5947C86.7339 7.37012 86.8545 7.42578 86.9565 7.51855C87.0493 7.62061 87.105 7.74121 87.105 7.88037C87.105 7.9917 87.0771 8.08447 87.0308 8.14941H87.374C87.5132 8.14941 87.6338 8.20508 87.7358 8.29785C87.8286 8.3999 87.8843 8.52051 87.8843 8.65967C87.8843 8.83594 87.8286 8.96582 87.7173 9.05859C87.8286 9.15137 87.8843 9.29053 87.8843 9.45752C87.8843 9.62451 87.8286 9.74512 87.7173 9.83789C87.8286 9.93066 87.8843 10.0698 87.8843 10.2368C87.8843 10.4038 87.8286 10.5244 87.7173 10.6172C87.8286 10.71 87.8843 10.8491 87.8843 11.0161C87.8843 11.1831 87.8286 11.3037 87.7173 11.3965C87.8286 11.4893 87.8843 11.6284 87.8843 11.7954C87.8843 11.9624 87.8286 12.083 87.7173 12.1758C87.8286 12.2686 87.8843 12.4077 87.8843 12.5747C87.8843 12.7324 87.8286 12.8623 87.7173 12.9736C87.8286 13.0664 87.8843 13.1963 87.8843 13.354C87.8843 13.5303 87.8286 13.6602 87.7173 13.7529C87.8286 13.8457 87.8843 13.9756 87.8843 14.1333C87.8843 14.3096 87.8286 14.4395 87.7173 14.5322C87.8286 14.625 87.8843 14.7549 87.8843 14.9126C87.8843 15.0889 87.8286 15.2188 87.7173 15.3115C87.8286 15.4043 87.8843 15.5342 87.8843 15.6919C87.8843 15.7939 87.8657 15.8774 87.8286 15.9517H90.4912ZM84.7671 9.45752C84.7671 9.60596 84.7114 9.72656 84.6187 9.81934C84.5166 9.92139 84.3867 9.96777 84.2383 9.96777C84.0898 9.96777 83.9692 9.92139 83.8765 9.81934C83.7744 9.72656 83.728 9.60596 83.728 9.45752C83.728 9.30908 83.7837 9.16992 83.895 9.05859C83.7837 8.94727 83.728 8.81738 83.728 8.65967C83.728 8.52051 83.7744 8.3999 83.8765 8.29785C83.9692 8.20508 84.0898 8.14941 84.2383 8.14941C84.3867 8.14941 84.5166 8.20508 84.6187 8.29785C84.7114 8.3999 84.7671 8.52051 84.7671 8.65967C84.7671 8.81738 84.7114 8.94727 84.6001 9.05859C84.7114 9.16992 84.7671 9.30908 84.7671 9.45752ZM96.5586 8.40918C96.4102 8.40918 96.2803 8.36279 96.1875 8.26074C96.0854 8.16797 96.0391 8.03809 96.0391 7.88037C96.0391 7.74121 96.0854 7.62061 96.1875 7.51855C96.2896 7.42578 96.4102 7.37012 96.5586 7.37012H98.8872C99.0356 7.37012 99.1655 7.42578 99.2676 7.51855C99.3696 7.62061 99.4253 7.74121 99.4253 7.88037C99.4253 8.03809 99.3696 8.16797 99.2676 8.26074C99.1655 8.36279 99.0356 8.40918 98.8872 8.40918H96.5586ZM96.2896 15.6919C96.2896 15.8403 96.2339 15.9609 96.1411 16.063C96.0391 16.1743 95.9185 16.2207 95.7793 16.2207H95C94.8516 16.2207 94.731 16.1743 94.6289 16.063C94.5269 15.9609 94.4805 15.8403 94.4805 15.6919C94.4805 15.5991 94.499 15.5156 94.5361 15.4414H94.2207C94.0723 15.4414 93.9517 15.395 93.8403 15.2837C93.729 15.1816 93.6826 15.061 93.6826 14.9126C93.6826 14.7734 93.7476 14.6436 93.8774 14.5322C93.7476 14.4209 93.6826 14.291 93.6826 14.1333C93.6826 13.9941 93.7476 13.8643 93.8774 13.7529C93.7476 13.6416 93.6826 13.5117 93.6826 13.354C93.6826 13.2148 93.7476 13.085 93.8774 12.9736C93.7476 12.8438 93.6826 12.7139 93.6826 12.5747C93.6826 12.4263 93.7476 12.2871 93.8774 12.1758C93.7476 12.0645 93.6826 11.9438 93.6826 11.7954C93.6826 11.647 93.7476 11.5078 93.8774 11.3965C93.7476 11.2852 93.6826 11.1646 93.6826 11.0161C93.6826 10.8677 93.7476 10.7285 93.8774 10.6172C93.7476 10.5059 93.6826 10.3853 93.6826 10.2368C93.6826 10.0884 93.7476 9.94922 93.8774 9.83789C93.7476 9.72656 93.6826 9.60596 93.6826 9.45752C93.6826 9.30908 93.729 9.18848 93.8403 9.08643C93.9424 8.98438 94.0723 8.92871 94.2207 8.92871H94.5361C94.499 8.85449 94.4805 8.771 94.4805 8.65967C94.4805 8.52051 94.5269 8.3999 94.6289 8.29785C94.731 8.20508 94.8516 8.14941 95 8.14941H95.7793C95.9185 8.14941 96.0391 8.20508 96.1411 8.29785C96.2339 8.3999 96.2896 8.52051 96.2896 8.65967C96.2896 8.81738 96.2339 8.94727 96.1411 9.04004C96.0391 9.14209 95.9185 9.18848 95.7793 9.18848H95.4546C95.4917 9.2627 95.5103 9.35547 95.5103 9.45752C95.5103 9.61523 95.4453 9.74512 95.334 9.83789C95.4453 9.93994 95.5103 10.0698 95.5103 10.2368C95.5103 10.3945 95.4453 10.5244 95.334 10.6172C95.4453 10.7192 95.5103 10.8491 95.5103 11.0161C95.5103 11.1738 95.4453 11.3037 95.334 11.3965C95.4453 11.4985 95.5103 11.6284 95.5103 11.7954C95.5103 11.9531 95.4453 12.083 95.334 12.1758C95.4453 12.2778 95.5103 12.4077 95.5103 12.5747C95.5103 12.7231 95.4453 12.8623 95.334 12.9736C95.4453 13.0757 95.5103 13.2056 95.5103 13.354C95.5103 13.521 95.4453 13.6602 95.334 13.7529C95.4453 13.855 95.5103 13.9849 95.5103 14.1333C95.5103 14.3003 95.4453 14.4395 95.334 14.5322C95.4453 14.6343 95.5103 14.7642 95.5103 14.9126C95.5103 15.0146 95.4917 15.0981 95.4546 15.1724H95.7793C95.9185 15.1724 96.0391 15.228 96.1411 15.3301C96.2339 15.4321 96.2896 15.5527 96.2896 15.6919ZM101.763 9.45752C101.763 9.61523 101.698 9.74512 101.587 9.83789C101.698 9.93994 101.763 10.0698 101.763 10.2368C101.763 10.3945 101.698 10.5244 101.587 10.6172C101.698 10.7192 101.763 10.8491 101.763 11.0161C101.763 11.1738 101.698 11.3037 101.587 11.3965C101.698 11.4985 101.763 11.6284 101.763 11.7954C101.763 11.9531 101.698 12.083 101.587 12.1758C101.698 12.2778 101.763 12.4077 101.763 12.5747C101.763 12.7231 101.698 12.8623 101.587 12.9736C101.698 13.0757 101.763 13.2056 101.763 13.354C101.763 13.521 101.698 13.6602 101.587 13.7529C101.698 13.855 101.763 13.9849 101.763 14.1333C101.763 14.3003 101.698 14.4395 101.587 14.5322C101.698 14.6343 101.763 14.7642 101.763 14.9126C101.763 15.061 101.708 15.1816 101.605 15.2837C101.503 15.395 101.383 15.4414 101.244 15.4414H100.91C100.956 15.5156 100.984 15.5991 100.984 15.6919C100.984 15.8403 100.928 15.9609 100.826 16.063C100.724 16.1743 100.604 16.2207 100.464 16.2207H99.6851C99.5366 16.2207 99.4067 16.1743 99.3047 16.0723C99.2026 15.9702 99.1562 15.8403 99.1562 15.6919C99.1562 15.5527 99.2026 15.4321 99.3047 15.3301C99.3975 15.228 99.5273 15.1724 99.6851 15.1724H100.01C99.9541 15.0796 99.9355 14.9868 99.9355 14.9126C99.9355 14.7734 100 14.6436 100.13 14.5322C100 14.4209 99.9355 14.291 99.9355 14.1333C99.9355 13.9941 100 13.8643 100.13 13.7529C100 13.6416 99.9355 13.5117 99.9355 13.354C99.9355 13.2148 100 13.085 100.13 12.9736C100 12.8438 99.9355 12.7139 99.9355 12.5747C99.9355 12.4263 100 12.2871 100.13 12.1758C100 12.0645 99.9355 11.9438 99.9355 11.7954C99.9355 11.647 100 11.5078 100.13 11.3965C100 11.2852 99.9355 11.1646 99.9355 11.0161C99.9355 10.8677 100 10.7285 100.13 10.6172C100 10.5059 99.9355 10.3853 99.9355 10.2368C99.9355 10.0884 100 9.94922 100.13 9.83789C100 9.72656 99.9355 9.60596 99.9355 9.45752C99.9355 9.3833 99.9541 9.29053 100.01 9.18848H99.6851C99.5273 9.18848 99.3975 9.14209 99.3047 9.04004C99.2026 8.94727 99.1562 8.81738 99.1562 8.65967C99.1562 8.52051 99.2026 8.3999 99.3047 8.29785C99.3975 8.20508 99.5273 8.14941 99.6851 8.14941H100.464C100.604 8.14941 100.724 8.20508 100.826 8.29785C100.928 8.3999 100.984 8.52051 100.984 8.65967C100.984 8.771 100.956 8.86377 100.91 8.92871H101.244C101.383 8.92871 101.503 8.98438 101.605 9.07715C101.708 9.1792 101.763 9.30908 101.763 9.45752ZM98.8872 15.9517C99.0356 15.9517 99.1655 16.0073 99.2676 16.1094C99.3696 16.2114 99.4253 16.332 99.4253 16.4712C99.4253 16.6289 99.3696 16.7588 99.2676 16.8516C99.1655 16.9536 99.0356 17 98.8872 17H96.5586C96.4102 17 96.2803 16.9536 96.1875 16.8516C96.0854 16.7588 96.0391 16.6289 96.0391 16.4712C96.0391 16.332 96.0854 16.2114 96.1875 16.1094C96.2896 16.0073 96.4102 15.9517 96.5586 15.9517H98.8872ZM111.588 15.9517C111.727 15.9517 111.848 16.0073 111.95 16.1094C112.052 16.2114 112.107 16.332 112.107 16.4712C112.107 16.6289 112.052 16.7588 111.959 16.8516C111.857 16.9536 111.736 17 111.588 17H108.916C108.962 17.0742 108.99 17.1577 108.99 17.269C108.99 17.4082 108.925 17.5381 108.814 17.6494C108.925 17.77 108.99 17.8999 108.99 18.0483C108.99 18.1875 108.925 18.3174 108.814 18.4287C108.925 18.5493 108.99 18.6792 108.99 18.8276C108.99 18.9668 108.925 19.0967 108.814 19.208C108.925 19.3286 108.99 19.4585 108.99 19.6069C108.99 19.7461 108.925 19.876 108.814 19.9873C108.925 20.1079 108.99 20.2378 108.99 20.3862C108.99 20.4976 108.962 20.5811 108.916 20.646H111.588C111.727 20.646 111.848 20.7017 111.95 20.8037C112.052 20.9058 112.107 21.0264 112.107 21.1655C112.107 21.314 112.052 21.4346 111.95 21.5273C111.848 21.6294 111.727 21.6758 111.588 21.6758H104.565C104.417 21.6758 104.296 21.6294 104.194 21.5273C104.092 21.4346 104.045 21.314 104.045 21.1655C104.045 21.0264 104.092 20.9058 104.194 20.8037C104.296 20.7017 104.417 20.646 104.565 20.646H107.246C107.19 20.5718 107.163 20.4883 107.163 20.3862C107.163 20.2378 107.218 20.1079 107.339 19.9873C107.218 19.876 107.163 19.7461 107.163 19.6069C107.163 19.4585 107.218 19.3286 107.339 19.208C107.218 19.0967 107.163 18.9668 107.163 18.8276C107.163 18.6792 107.218 18.5493 107.339 18.4287C107.218 18.3174 107.163 18.1875 107.163 18.0483C107.163 17.8999 107.218 17.77 107.339 17.6494C107.218 17.5381 107.163 17.4082 107.163 17.269C107.163 17.1206 107.218 16.9907 107.339 16.8701C107.218 16.7588 107.163 16.6196 107.163 16.4712C107.163 16.3413 107.218 16.2114 107.339 16.0908C107.218 15.9795 107.163 15.8403 107.163 15.6919C107.163 15.562 107.218 15.4321 107.339 15.3115C107.218 15.2002 107.163 15.061 107.163 14.9126C107.163 14.7827 107.218 14.6528 107.339 14.5322C107.218 14.4209 107.163 14.2817 107.163 14.1333C107.163 14.0034 107.218 13.8735 107.339 13.7529C107.218 13.6416 107.163 13.5024 107.163 13.354C107.163 13.2241 107.218 13.0942 107.339 12.9736C107.218 12.8345 107.163 12.7046 107.163 12.5747C107.163 12.4263 107.218 12.2964 107.339 12.1758C107.218 12.0645 107.163 11.9346 107.163 11.7954C107.163 11.647 107.218 11.5171 107.339 11.3965C107.218 11.2852 107.163 11.1553 107.163 11.0161C107.163 10.8677 107.218 10.7378 107.339 10.6172C107.218 10.5059 107.163 10.376 107.163 10.2368C107.163 10.0884 107.218 9.9585 107.339 9.83789C107.218 9.72656 107.163 9.59668 107.163 9.45752C107.163 9.30908 107.218 9.1792 107.339 9.05859C107.218 8.94727 107.163 8.80811 107.163 8.65967C107.163 8.56689 107.19 8.4834 107.246 8.40918H104.565C104.417 8.40918 104.296 8.36279 104.194 8.26074C104.092 8.16797 104.045 8.03809 104.045 7.88037C104.045 7.74121 104.092 7.62061 104.194 7.51855C104.296 7.42578 104.417 7.37012 104.565 7.37012H108.461C108.61 7.37012 108.74 7.42578 108.842 7.51855C108.935 7.62061 108.99 7.74121 108.99 7.88037C108.99 8.02881 108.925 8.16797 108.814 8.2793C108.925 8.3999 108.99 8.52979 108.99 8.65967C108.99 8.80811 108.925 8.94727 108.814 9.05859C108.925 9.1792 108.99 9.30908 108.99 9.45752C108.99 9.55957 108.962 9.64307 108.916 9.70801H110.039C110.178 9.70801 110.298 9.76367 110.4 9.86572C110.493 9.97705 110.549 10.0977 110.549 10.2368C110.549 10.3853 110.493 10.5059 110.4 10.5986C110.298 10.7007 110.178 10.7471 110.039 10.7471H108.916C108.962 10.8213 108.99 10.9048 108.99 11.0161C108.99 11.1553 108.925 11.2852 108.814 11.3965C108.925 11.5171 108.99 11.647 108.99 11.7954C108.99 11.9346 108.925 12.0645 108.814 12.1758C108.925 12.2964 108.99 12.4263 108.99 12.5747C108.99 12.7046 108.925 12.8345 108.814 12.9736C108.925 13.0942 108.99 13.2241 108.99 13.354C108.99 13.5024 108.925 13.6416 108.814 13.7529C108.925 13.8735 108.99 14.0034 108.99 14.1333C108.99 14.2817 108.925 14.4209 108.814 14.5322C108.925 14.6528 108.99 14.7827 108.99 14.9126C108.99 15.061 108.925 15.2002 108.814 15.3115C108.925 15.4321 108.99 15.562 108.99 15.6919C108.99 15.8032 108.962 15.8867 108.916 15.9517H111.588ZM114.464 8.65967C114.464 8.81738 114.399 8.94727 114.269 9.05859C114.399 9.16992 114.464 9.30908 114.464 9.45752C114.464 9.60596 114.399 9.72656 114.269 9.83789C114.399 9.94922 114.464 10.0791 114.464 10.2368C114.464 10.3853 114.399 10.5059 114.269 10.6172C114.399 10.7285 114.464 10.8677 114.464 11.0161C114.464 11.1646 114.399 11.2852 114.269 11.3965C114.399 11.5078 114.464 11.647 114.464 11.7954C114.464 11.9438 114.399 12.0645 114.269 12.1758C114.399 12.2871 114.464 12.4263 114.464 12.5747C114.464 12.7139 114.399 12.8438 114.269 12.9736C114.399 13.085 114.464 13.2148 114.464 13.354C114.464 13.5117 114.399 13.6416 114.269 13.7529C114.399 13.8643 114.464 13.9941 114.464 14.1333C114.464 14.291 114.399 14.4209 114.269 14.5322C114.399 14.6436 114.464 14.7642 114.464 14.9126C114.464 15.061 114.408 15.1816 114.297 15.2837C114.186 15.395 114.065 15.4414 113.926 15.4414H113.61C113.647 15.5156 113.666 15.5991 113.666 15.6919C113.666 15.8403 113.61 15.9609 113.508 16.063C113.406 16.1743 113.286 16.2207 113.146 16.2207H112.367C112.219 16.2207 112.098 16.1743 112.005 16.063C111.903 15.9609 111.857 15.8403 111.857 15.6919C111.857 15.5527 111.903 15.4321 112.005 15.3301C112.098 15.228 112.219 15.1724 112.367 15.1724H112.692C112.655 15.0981 112.636 15.0146 112.636 14.9126C112.636 14.7642 112.692 14.6343 112.812 14.5322C112.692 14.4395 112.636 14.3003 112.636 14.1333C112.636 13.9849 112.692 13.855 112.812 13.7529C112.692 13.6602 112.636 13.521 112.636 13.354C112.636 13.2056 112.692 13.0757 112.812 12.9736C112.692 12.8623 112.636 12.7231 112.636 12.5747C112.636 12.4077 112.692 12.2778 112.812 12.1758C112.692 12.083 112.636 11.9531 112.636 11.7954C112.636 11.6284 112.692 11.4985 112.812 11.3965C112.692 11.3037 112.636 11.1738 112.636 11.0161C112.636 10.8491 112.692 10.7192 112.812 10.6172C112.692 10.5244 112.636 10.3945 112.636 10.2368C112.636 10.0698 112.692 9.93994 112.812 9.83789C112.692 9.74512 112.636 9.61523 112.636 9.45752C112.636 9.29053 112.692 9.16064 112.812 9.05859C112.692 8.96582 112.636 8.82666 112.636 8.65967C112.636 8.56689 112.655 8.4834 112.692 8.40918H111.588C111.439 8.40918 111.31 8.36279 111.208 8.26074C111.105 8.15869 111.059 8.02881 111.059 7.88037C111.059 7.74121 111.105 7.62061 111.217 7.51855C111.319 7.42578 111.439 7.37012 111.588 7.37012H113.146C113.286 7.37012 113.406 7.42578 113.508 7.51855C113.61 7.62061 113.666 7.74121 113.666 7.88037C113.666 7.9917 113.647 8.0752 113.61 8.14941H113.926C114.074 8.14941 114.195 8.20508 114.306 8.29785C114.408 8.3999 114.464 8.52051 114.464 8.65967ZM110.28 9.45752C110.28 9.2998 110.345 9.16992 110.475 9.05859C110.345 8.94727 110.28 8.81738 110.28 8.65967C110.28 8.52051 110.326 8.3999 110.438 8.29785C110.54 8.20508 110.669 8.14941 110.818 8.14941C110.957 8.14941 111.078 8.20508 111.18 8.29785C111.272 8.3999 111.328 8.52051 111.328 8.65967C111.328 8.82666 111.263 8.96582 111.152 9.05859C111.263 9.16064 111.328 9.29053 111.328 9.45752C111.328 9.60596 111.272 9.72656 111.18 9.81934C111.078 9.92139 110.957 9.96777 110.818 9.96777C110.669 9.96777 110.54 9.92139 110.438 9.81934C110.326 9.72656 110.28 9.60596 110.28 9.45752ZM126.125 7.88037C126.125 8.04736 126.061 8.17725 125.94 8.2793C126.061 8.39062 126.125 8.51123 126.125 8.65967C126.125 8.82666 126.061 8.95654 125.94 9.05859C126.061 9.16992 126.125 9.2998 126.125 9.45752C126.125 9.60596 126.061 9.73584 125.94 9.83789C126.061 9.94922 126.125 10.0791 126.125 10.2368C126.125 10.3853 126.061 10.5151 125.94 10.6172C126.061 10.7285 126.125 10.8584 126.125 11.0161C126.125 11.1646 126.07 11.2852 125.968 11.3779C125.856 11.48 125.736 11.5264 125.597 11.5264C125.448 11.5264 125.328 11.48 125.235 11.3779C125.133 11.2852 125.086 11.1646 125.086 11.0161C125.086 10.8491 125.142 10.71 125.253 10.6172C125.142 10.5244 125.086 10.4038 125.086 10.2368C125.086 10.0698 125.142 9.93066 125.253 9.83789C125.142 9.74512 125.086 9.62451 125.086 9.45752C125.086 9.29053 125.142 9.15137 125.253 9.05859L125.216 9.02148C125.105 9.13281 124.966 9.18848 124.817 9.18848C124.669 9.18848 124.548 9.14209 124.456 9.04004C124.354 8.94727 124.307 8.81738 124.307 8.65967C124.307 8.52051 124.354 8.3999 124.456 8.29785C124.548 8.20508 124.669 8.14941 124.817 8.14941C124.966 8.14941 125.105 8.20508 125.216 8.31641L125.253 8.2793C125.142 8.18652 125.086 8.05664 125.086 7.88037C125.086 7.72266 125.142 7.59277 125.253 7.5C125.142 7.40723 125.086 7.27734 125.086 7.10107C125.086 6.96191 125.133 6.84131 125.235 6.73926C125.328 6.64648 125.448 6.59082 125.597 6.59082C125.736 6.59082 125.856 6.64648 125.968 6.73926C126.07 6.84131 126.125 6.96191 126.125 7.10107C126.125 7.26807 126.061 7.39795 125.94 7.5C126.061 7.61133 126.125 7.73193 126.125 7.88037ZM120.921 8.40918C120.763 8.40918 120.633 8.36279 120.541 8.26074C120.438 8.16797 120.392 8.03809 120.392 7.88037C120.392 7.74121 120.438 7.62061 120.541 7.51855C120.633 7.42578 120.763 7.37012 120.921 7.37012H124.038C124.177 7.37012 124.298 7.42578 124.4 7.51855C124.493 7.62061 124.548 7.74121 124.548 7.88037C124.548 8.03809 124.493 8.16797 124.4 8.26074C124.298 8.36279 124.177 8.40918 124.038 8.40918H120.921ZM120.123 9.18848C119.975 9.18848 119.854 9.14209 119.761 9.04004C119.659 8.94727 119.613 8.81738 119.613 8.65967C119.613 8.52051 119.659 8.3999 119.761 8.29785C119.854 8.20508 119.975 8.14941 120.123 8.14941C120.271 8.14941 120.401 8.20508 120.503 8.29785C120.596 8.3999 120.652 8.52051 120.652 8.65967C120.652 8.81738 120.596 8.94727 120.503 9.04004C120.401 9.14209 120.271 9.18848 120.123 9.18848ZM125.597 12.8345C125.736 12.8345 125.856 12.8901 125.968 12.9922C126.07 13.0942 126.125 13.2148 126.125 13.354C126.125 13.521 126.061 13.6509 125.94 13.7529C126.061 13.8643 126.125 13.9849 126.125 14.1333C126.125 14.3003 126.061 14.4302 125.94 14.5322C126.061 14.6436 126.125 14.7642 126.125 14.9126C126.125 15.061 126.07 15.1816 125.968 15.2837C125.856 15.395 125.736 15.4414 125.597 15.4414C125.448 15.4414 125.328 15.395 125.235 15.2837C125.133 15.1816 125.086 15.061 125.086 14.9126C125.086 14.8198 125.105 14.7363 125.142 14.6621H124.817C124.669 14.6621 124.548 14.6157 124.456 14.5044C124.354 14.4023 124.307 14.2817 124.307 14.1333C124.307 13.9756 124.363 13.8457 124.474 13.7529C124.363 13.6602 124.307 13.5303 124.307 13.354C124.307 13.252 124.326 13.1592 124.363 13.085H121.7C121.552 13.085 121.431 13.0386 121.329 12.9365C121.218 12.8438 121.171 12.7231 121.171 12.5747C121.171 12.5005 121.19 12.4077 121.246 12.3057H120.123C119.975 12.3057 119.854 12.2593 119.761 12.1572C119.659 12.0645 119.613 11.9438 119.613 11.7954C119.613 11.6841 119.631 11.6006 119.687 11.5264H119.344C119.195 11.5264 119.075 11.48 118.982 11.3779C118.88 11.2852 118.833 11.1646 118.833 11.0161C118.833 10.8677 118.889 10.7285 119 10.6172C118.889 10.5059 118.833 10.3853 118.833 10.2368C118.833 10.0884 118.889 9.94922 119 9.83789C118.889 9.72656 118.833 9.60596 118.833 9.45752C118.833 9.30908 118.88 9.1792 118.982 9.07715C119.075 8.98438 119.195 8.92871 119.344 8.92871C119.492 8.92871 119.613 8.98438 119.715 9.08643C119.817 9.18848 119.873 9.30908 119.873 9.45752C119.873 9.53174 119.845 9.61523 119.798 9.70801H120.123C120.271 9.70801 120.392 9.76367 120.494 9.86572C120.596 9.96777 120.652 10.0884 120.652 10.2368C120.652 10.3853 120.596 10.5059 120.485 10.6172C120.596 10.7285 120.652 10.8677 120.652 11.0161C120.652 11.1182 120.624 11.2017 120.578 11.2666H124.038C124.177 11.2666 124.298 11.3223 124.4 11.4243C124.493 11.5356 124.548 11.6562 124.548 11.7954C124.548 11.9067 124.53 11.9902 124.493 12.0645H124.817C124.957 12.0645 125.077 12.1201 125.179 12.2129C125.272 12.3149 125.328 12.4355 125.328 12.5747C125.328 12.6768 125.309 12.7603 125.272 12.8345H125.597ZM119.743 16.0352L119.687 16.0908C119.808 16.2021 119.873 16.3228 119.873 16.4712C119.873 16.6382 119.808 16.7681 119.687 16.8701C119.808 16.9814 119.873 17.1113 119.873 17.269C119.873 17.4175 119.817 17.5381 119.715 17.6309C119.604 17.7329 119.483 17.7793 119.344 17.7793C119.195 17.7793 119.075 17.7329 118.982 17.6309C118.88 17.5381 118.833 17.4175 118.833 17.269C118.833 17.1206 118.889 16.9814 119 16.8701C118.889 16.7588 118.833 16.6289 118.833 16.4712C118.833 16.332 118.889 16.2021 119 16.0908C118.889 15.9795 118.833 15.8496 118.833 15.6919C118.833 15.5527 118.889 15.4229 119 15.3115C118.889 15.2002 118.833 15.0703 118.833 14.9126C118.833 14.7734 118.889 14.6436 119 14.5322C118.889 14.4209 118.833 14.291 118.833 14.1333C118.833 13.9941 118.889 13.8643 119 13.7529C118.889 13.6416 118.833 13.5117 118.833 13.354C118.833 13.2148 118.88 13.0942 118.982 12.9922C119.075 12.8901 119.195 12.8345 119.344 12.8345C119.483 12.8345 119.604 12.8901 119.715 12.9922C119.817 13.0942 119.873 13.2148 119.873 13.354C119.873 13.521 119.808 13.6509 119.687 13.7529C119.808 13.8643 119.873 13.9849 119.873 14.1333C119.873 14.3003 119.808 14.4302 119.687 14.5322C119.808 14.6436 119.873 14.7642 119.873 14.9126C119.873 15.0796 119.808 15.2095 119.687 15.3115C119.706 15.3301 119.724 15.3394 119.743 15.3486C119.854 15.2373 119.984 15.1724 120.123 15.1724C120.271 15.1724 120.392 15.228 120.494 15.3301C120.596 15.4321 120.652 15.5527 120.652 15.6919C120.652 15.8403 120.596 15.9702 120.494 16.0723C120.392 16.1743 120.271 16.2207 120.123 16.2207C119.975 16.2207 119.845 16.165 119.743 16.0352ZM124.817 15.1724C124.957 15.1724 125.077 15.228 125.179 15.3301C125.272 15.4321 125.328 15.5527 125.328 15.6919C125.328 15.8403 125.272 15.9609 125.179 16.063C125.077 16.1743 124.957 16.2207 124.817 16.2207C124.669 16.2207 124.548 16.1743 124.456 16.063C124.354 15.9609 124.307 15.8403 124.307 15.6919C124.307 15.5527 124.354 15.4321 124.456 15.3301C124.548 15.228 124.669 15.1724 124.817 15.1724ZM124.038 15.9517C124.177 15.9517 124.298 16.0073 124.4 16.1094C124.493 16.2114 124.548 16.332 124.548 16.4712C124.548 16.6289 124.493 16.7588 124.4 16.8516C124.298 16.9536 124.177 17 124.038 17H120.921C120.763 17 120.633 16.9536 120.541 16.8516C120.438 16.7588 120.392 16.6289 120.392 16.4712C120.392 16.332 120.438 16.2114 120.541 16.1094C120.643 16.0073 120.772 15.9517 120.921 15.9517H124.038Z" fill="black"/>
</svg>
